<svg width="512" height="512" viewBox="0 0 512 512" fill="none" xmlns="http://www.w3.org/2000/svg">
<g clip-path="url(#clip0)">
<path d="M16.5701 415.402L175.98 255.996L16.5701 96.5898C-5.52362 74.4922 -5.52362 38.668 16.5701 16.5703C38.6678 -5.52344 74.492 -5.52344 96.5897 16.5703L255.996 175.98L415.402 16.5703C437.5 -5.52344 473.324 -5.52344 495.422 16.5703C517.515 38.668 517.515 74.4922 495.422 96.5898L336.012 255.996L495.422 415.402C517.515 437.5 517.515 473.324 495.422 495.422C473.324 517.516 437.5 517.516 415.402 495.422L255.996 336.012L96.5897 495.422C74.492 517.516 38.6678 517.516 16.5701 495.422C-5.52362 473.324 -5.52362 437.5 16.5701 415.402Z" fill="url(#paint0_linear)"/>
</g>
<defs>
<linearGradient id="paint0_linear" x1="511.992" y1="255.996" x2="-0.000183105" y2="255.996" gradientUnits="userSpaceOnUse">
<stop stop-color="#934CC4"/>
<stop offset="1" stop-color="#5D78ED"/>
</linearGradient>
<clipPath id="clip0">
<rect width="511.992" height="511.992" fill="white" transform="translate(511.992) rotate(90)"/>
</clipPath>
</defs>
</svg>
