<svg width="608" height="309" viewBox="0 0 608 309" fill="none" xmlns="http://www.w3.org/2000/svg">
<rect x="463" y="40" width="4.62963" height="4.62963" fill="#6777C4" fill-opacity="0.8"/>
<rect x="473" y="40" width="4.62963" height="4.62963" fill="#6777C4" fill-opacity="0.8"/>
<rect x="483" y="40" width="4.62963" height="4.62963" fill="#6777C4" fill-opacity="0.8"/>
<rect x="493" y="40" width="4.62963" height="4.62963" fill="#6777C4" fill-opacity="0.8"/>
<rect x="503" y="40" width="4.62963" height="4.62963" fill="#6777C4" fill-opacity="0.8"/>
<rect x="513" y="40" width="4.62963" height="4.62963" fill="#6777C4" fill-opacity="0.8"/>
<rect x="533" y="40" width="4.62963" height="4.62963" fill="#6777C4" fill-opacity="0.8"/>
<rect x="523" y="40" width="4.62963" height="4.62963" fill="#6777C4" fill-opacity="0.8"/>
<rect x="543" y="40" width="4.62963" height="4.62963" fill="#6777C4" fill-opacity="0.8"/>
<rect x="573" y="40" width="4.62963" height="4.62963" fill="#6777C4" fill-opacity="0.8"/>
<rect x="563" y="40" width="4.62963" height="4.62963" fill="#6777C4" fill-opacity="0.8"/>
<rect x="553" y="40" width="4.62963" height="4.62963" fill="#6777C4" fill-opacity="0.8"/>
<rect x="583" y="40" width="4.62963" height="4.62963" fill="#6777C4" fill-opacity="0.8"/>
<rect x="593" y="40" width="4.62963" height="4.62963" fill="#6777C4" fill-opacity="0.8"/>
<rect x="603" y="40" width="4.62963" height="4.62963" fill="#6777C4" fill-opacity="0.8"/>
<rect x="463" y="50" width="4.62963" height="4.62963" fill="#6777C4" fill-opacity="0.8"/>
<rect x="473" y="50" width="4.62963" height="4.62963" fill="#6777C4" fill-opacity="0.8"/>
<rect x="483" y="50" width="4.62963" height="4.62963" fill="#6777C4" fill-opacity="0.8"/>
<rect x="493" y="50" width="4.62963" height="4.62963" fill="#6777C4" fill-opacity="0.8"/>
<rect x="503" y="50" width="4.62963" height="4.62963" fill="#6777C4" fill-opacity="0.8"/>
<rect x="513" y="50" width="4.62963" height="4.62963" fill="#6777C4" fill-opacity="0.8"/>
<rect x="533" y="50" width="4.62963" height="4.62963" fill="#6777C4" fill-opacity="0.8"/>
<rect x="523" y="50" width="4.62963" height="4.62963" fill="#6777C4" fill-opacity="0.8"/>
<rect x="543" y="50" width="4.62963" height="4.62963" fill="#6777C4" fill-opacity="0.8"/>
<rect x="573" y="50" width="4.62963" height="4.62963" fill="#6777C4" fill-opacity="0.8"/>
<rect x="563" y="50" width="4.62963" height="4.62963" fill="#6777C4" fill-opacity="0.8"/>
<rect x="553" y="50" width="4.62963" height="4.62963" fill="#6777C4" fill-opacity="0.8"/>
<rect x="583" y="50" width="4.62963" height="4.62963" fill="#6777C4" fill-opacity="0.8"/>
<rect x="593" y="50" width="4.62963" height="4.62963" fill="#6777C4" fill-opacity="0.8"/>
<rect x="603" y="50" width="4.62963" height="4.62963" fill="#6777C4" fill-opacity="0.8"/>
<rect x="463" y="60" width="4.62963" height="4.62963" fill="#6777C4" fill-opacity="0.8"/>
<rect x="473" y="60" width="4.62963" height="4.62963" fill="#6777C4" fill-opacity="0.8"/>
<rect x="483" y="60" width="4.62963" height="4.62963" fill="#6777C4" fill-opacity="0.8"/>
<rect x="493" y="60" width="4.62963" height="4.62963" fill="#6777C4" fill-opacity="0.8"/>
<rect x="503" y="60" width="4.62963" height="4.62963" fill="#6777C4" fill-opacity="0.8"/>
<rect x="513" y="60" width="4.62963" height="4.62963" fill="#6777C4" fill-opacity="0.8"/>
<rect x="533" y="60" width="4.62963" height="4.62963" fill="#6777C4" fill-opacity="0.8"/>
<rect x="523" y="60" width="4.62963" height="4.62963" fill="#6777C4" fill-opacity="0.8"/>
<rect x="543" y="60" width="4.62963" height="4.62963" fill="#6777C4" fill-opacity="0.8"/>
<rect x="573" y="60" width="4.62963" height="4.62963" fill="#6777C4" fill-opacity="0.8"/>
<rect x="563" y="60" width="4.62963" height="4.62963" fill="#6777C4" fill-opacity="0.8"/>
<rect x="553" y="60" width="4.62963" height="4.62963" fill="#6777C4" fill-opacity="0.8"/>
<rect x="583" y="60" width="4.62963" height="4.62963" fill="#6777C4" fill-opacity="0.8"/>
<rect x="593" y="60" width="4.62963" height="4.62963" fill="#6777C4" fill-opacity="0.8"/>
<rect x="603" y="60" width="4.62963" height="4.62963" fill="#6777C4" fill-opacity="0.8"/>
<rect x="463" y="70" width="4.62963" height="4.62963" fill="#6777C4" fill-opacity="0.8"/>
<rect x="473" y="70" width="4.62963" height="4.62963" fill="#6777C4" fill-opacity="0.8"/>
<rect x="483" y="70" width="4.62963" height="4.62963" fill="#6777C4" fill-opacity="0.8"/>
<rect x="493" y="70" width="4.62963" height="4.62963" fill="#6777C4" fill-opacity="0.8"/>
<rect x="503" y="70" width="4.62963" height="4.62963" fill="#6777C4" fill-opacity="0.8"/>
<rect x="513" y="70" width="4.62963" height="4.62963" fill="#6777C4" fill-opacity="0.8"/>
<rect x="533" y="70" width="4.62963" height="4.62963" fill="#6777C4" fill-opacity="0.8"/>
<rect x="523" y="70" width="4.62963" height="4.62963" fill="#6777C4" fill-opacity="0.8"/>
<rect x="543" y="70" width="4.62963" height="4.62963" fill="#6777C4" fill-opacity="0.8"/>
<rect x="573" y="70" width="4.62963" height="4.62963" fill="#6777C4" fill-opacity="0.8"/>
<rect x="563" y="70" width="4.62963" height="4.62963" fill="#6777C4" fill-opacity="0.8"/>
<rect x="553" y="70" width="4.62963" height="4.62963" fill="#6777C4" fill-opacity="0.8"/>
<rect x="583" y="70" width="4.62963" height="4.62963" fill="#6777C4" fill-opacity="0.8"/>
<rect x="593" y="70" width="4.62963" height="4.62963" fill="#6777C4" fill-opacity="0.8"/>
<rect x="603" y="70" width="4.62963" height="4.62963" fill="#6777C4" fill-opacity="0.8"/>
<rect x="463" y="80" width="4.62963" height="4.62963" fill="#6777C4" fill-opacity="0.8"/>
<rect x="473" y="80" width="4.62963" height="4.62963" fill="#6777C4" fill-opacity="0.8"/>
<rect x="483" y="80" width="4.62963" height="4.62963" fill="#6777C4" fill-opacity="0.8"/>
<rect x="493" y="80" width="4.62963" height="4.62963" fill="#6777C4" fill-opacity="0.8"/>
<rect x="503" y="80" width="4.62963" height="4.62963" fill="#6777C4" fill-opacity="0.8"/>
<rect x="513" y="80" width="4.62963" height="4.62963" fill="#6777C4" fill-opacity="0.8"/>
<rect x="533" y="80" width="4.62963" height="4.62963" fill="#6777C4" fill-opacity="0.8"/>
<rect x="523" y="80" width="4.62963" height="4.62963" fill="#6777C4" fill-opacity="0.8"/>
<rect x="543" y="80" width="4.62963" height="4.62963" fill="#6777C4" fill-opacity="0.8"/>
<rect x="573" y="80" width="4.62963" height="4.62963" fill="#6777C4" fill-opacity="0.8"/>
<rect x="563" y="80" width="4.62963" height="4.62963" fill="#6777C4" fill-opacity="0.8"/>
<rect x="553" y="80" width="4.62963" height="4.62963" fill="#6777C4" fill-opacity="0.8"/>
<rect x="583" y="80" width="4.62963" height="4.62963" fill="#6777C4" fill-opacity="0.8"/>
<rect x="593" y="80" width="4.62963" height="4.62963" fill="#6777C4" fill-opacity="0.8"/>
<rect x="603" y="80" width="4.62963" height="4.62963" fill="#6777C4" fill-opacity="0.8"/>
<rect x="463" y="90" width="4.62963" height="4.62963" fill="#6777C4" fill-opacity="0.8"/>
<rect x="473" y="90" width="4.62963" height="4.62963" fill="#6777C4" fill-opacity="0.8"/>
<rect x="483" y="90" width="4.62963" height="4.62963" fill="#6777C4" fill-opacity="0.8"/>
<rect x="493" y="90" width="4.62963" height="4.62963" fill="#6777C4" fill-opacity="0.8"/>
<rect x="503" y="90" width="4.62963" height="4.62963" fill="#6777C4" fill-opacity="0.8"/>
<rect x="513" y="90" width="4.62963" height="4.62963" fill="#6777C4" fill-opacity="0.8"/>
<rect x="533" y="90" width="4.62963" height="4.62963" fill="#6777C4" fill-opacity="0.8"/>
<rect x="523" y="90" width="4.62963" height="4.62963" fill="#6777C4" fill-opacity="0.8"/>
<rect x="543" y="90" width="4.62963" height="4.62963" fill="#6777C4" fill-opacity="0.8"/>
<rect x="573" y="90" width="4.62963" height="4.62963" fill="#6777C4" fill-opacity="0.8"/>
<rect x="563" y="90" width="4.62963" height="4.62963" fill="#6777C4" fill-opacity="0.8"/>
<rect x="553" y="90" width="4.62963" height="4.62963" fill="#6777C4" fill-opacity="0.8"/>
<rect x="583" y="90" width="4.62963" height="4.62963" fill="#6777C4" fill-opacity="0.8"/>
<rect x="593" y="90" width="4.62963" height="4.62963" fill="#6777C4" fill-opacity="0.8"/>
<rect x="603" y="90" width="4.62963" height="4.62963" fill="#6777C4" fill-opacity="0.8"/>
<rect x="463" y="100" width="4.62963" height="4.62963" fill="#6777C4" fill-opacity="0.8"/>
<rect x="473" y="100" width="4.62963" height="4.62963" fill="#6777C4" fill-opacity="0.8"/>
<rect x="483" y="100" width="4.62963" height="4.62963" fill="#6777C4" fill-opacity="0.8"/>
<rect x="493" y="100" width="4.62963" height="4.62963" fill="#6777C4" fill-opacity="0.8"/>
<rect x="503" y="100" width="4.62963" height="4.62963" fill="#6777C4" fill-opacity="0.8"/>
<rect x="513" y="100" width="4.62963" height="4.62963" fill="#6777C4" fill-opacity="0.8"/>
<rect x="533" y="100" width="4.62963" height="4.62963" fill="#6777C4" fill-opacity="0.8"/>
<rect x="523" y="100" width="4.62963" height="4.62963" fill="#6777C4" fill-opacity="0.8"/>
<rect x="543" y="100" width="4.62963" height="4.62963" fill="#6777C4" fill-opacity="0.8"/>
<rect x="573" y="100" width="4.62963" height="4.62963" fill="#6777C4" fill-opacity="0.8"/>
<rect x="563" y="100" width="4.62963" height="4.62963" fill="#6777C4" fill-opacity="0.8"/>
<rect x="553" y="100" width="4.62963" height="4.62963" fill="#6777C4" fill-opacity="0.8"/>
<rect x="583" y="100" width="4.62963" height="4.62963" fill="#6777C4" fill-opacity="0.8"/>
<rect x="593" y="100" width="4.62963" height="4.62963" fill="#6777C4" fill-opacity="0.8"/>
<rect x="603" y="100" width="4.62963" height="4.62963" fill="#6777C4" fill-opacity="0.8"/>
<rect x="463" y="110" width="4.62963" height="4.62963" fill="#6777C4" fill-opacity="0.8"/>
<rect x="473" y="110" width="4.62963" height="4.62963" fill="#6777C4" fill-opacity="0.8"/>
<rect x="483" y="110" width="4.62963" height="4.62963" fill="#6777C4" fill-opacity="0.8"/>
<rect x="493" y="110" width="4.62963" height="4.62963" fill="#6777C4" fill-opacity="0.8"/>
<rect x="503" y="110" width="4.62963" height="4.62963" fill="#6777C4" fill-opacity="0.8"/>
<rect x="513" y="110" width="4.62963" height="4.62963" fill="#6777C4" fill-opacity="0.8"/>
<rect x="533" y="110" width="4.62963" height="4.62963" fill="#6777C4" fill-opacity="0.8"/>
<rect x="523" y="110" width="4.62963" height="4.62963" fill="#6777C4" fill-opacity="0.8"/>
<rect x="543" y="110" width="4.62963" height="4.62963" fill="#6777C4" fill-opacity="0.8"/>
<rect x="573" y="110" width="4.62963" height="4.62963" fill="#6777C4" fill-opacity="0.8"/>
<rect x="563" y="110" width="4.62963" height="4.62963" fill="#6777C4" fill-opacity="0.8"/>
<rect x="553" y="110" width="4.62963" height="4.62963" fill="#6777C4" fill-opacity="0.8"/>
<rect x="583" y="110" width="4.62963" height="4.62963" fill="#6777C4" fill-opacity="0.8"/>
<rect x="593" y="110" width="4.62963" height="4.62963" fill="#6777C4" fill-opacity="0.8"/>
<rect x="603" y="110" width="4.62963" height="4.62963" fill="#6777C4" fill-opacity="0.8"/>
<rect x="463" width="4.62963" height="4.62963" fill="#6777C4" fill-opacity="0.8"/>
<rect x="473" width="4.62963" height="4.62963" fill="#6777C4" fill-opacity="0.8"/>
<rect x="483" width="4.62963" height="4.62963" fill="#6777C4" fill-opacity="0.8"/>
<rect x="493" width="4.62963" height="4.62963" fill="#6777C4" fill-opacity="0.8"/>
<rect x="503" width="4.62963" height="4.62963" fill="#6777C4" fill-opacity="0.8"/>
<rect x="513" width="4.62963" height="4.62963" fill="#6777C4" fill-opacity="0.8"/>
<rect x="533" width="4.62963" height="4.62963" fill="#6777C4" fill-opacity="0.8"/>
<rect x="523" width="4.62963" height="4.62963" fill="#6777C4" fill-opacity="0.8"/>
<rect x="543" width="4.62963" height="4.62963" fill="#6777C4" fill-opacity="0.8"/>
<rect x="573" width="4.62963" height="4.62963" fill="#6777C4" fill-opacity="0.8"/>
<rect x="563" width="4.62963" height="4.62963" fill="#6777C4" fill-opacity="0.8"/>
<rect x="553" width="4.62963" height="4.62963" fill="#6777C4" fill-opacity="0.8"/>
<rect x="583" width="4.62963" height="4.62963" fill="#6777C4" fill-opacity="0.8"/>
<rect x="593" width="4.62963" height="4.62963" fill="#6777C4" fill-opacity="0.8"/>
<rect x="603" width="4.62963" height="4.62963" fill="#6777C4" fill-opacity="0.8"/>
<rect x="463" y="10" width="4.62963" height="4.62963" fill="#6777C4" fill-opacity="0.8"/>
<rect x="473" y="10" width="4.62963" height="4.62963" fill="#6777C4" fill-opacity="0.8"/>
<rect x="483" y="10" width="4.62963" height="4.62963" fill="#6777C4" fill-opacity="0.8"/>
<rect x="493" y="10" width="4.62963" height="4.62963" fill="#6777C4" fill-opacity="0.8"/>
<rect x="503" y="10" width="4.62963" height="4.62963" fill="#6777C4" fill-opacity="0.8"/>
<rect x="513" y="10" width="4.62963" height="4.62963" fill="#6777C4" fill-opacity="0.8"/>
<rect x="533" y="10" width="4.62963" height="4.62963" fill="#6777C4" fill-opacity="0.8"/>
<rect x="523" y="10" width="4.62963" height="4.62963" fill="#6777C4" fill-opacity="0.8"/>
<rect x="543" y="10" width="4.62963" height="4.62963" fill="#6777C4" fill-opacity="0.8"/>
<rect x="573" y="10" width="4.62963" height="4.62963" fill="#6777C4" fill-opacity="0.8"/>
<rect x="563" y="10" width="4.62963" height="4.62963" fill="#6777C4" fill-opacity="0.8"/>
<rect x="553" y="10" width="4.62963" height="4.62963" fill="#6777C4" fill-opacity="0.8"/>
<rect x="583" y="10" width="4.62963" height="4.62963" fill="#6777C4" fill-opacity="0.8"/>
<rect x="593" y="10" width="4.62963" height="4.62963" fill="#6777C4" fill-opacity="0.8"/>
<rect x="603" y="10" width="4.62963" height="4.62963" fill="#6777C4" fill-opacity="0.8"/>
<rect x="463" y="20" width="4.62963" height="4.62963" fill="#6777C4" fill-opacity="0.8"/>
<rect x="473" y="20" width="4.62963" height="4.62963" fill="#6777C4" fill-opacity="0.8"/>
<rect x="483" y="20" width="4.62963" height="4.62963" fill="#6777C4" fill-opacity="0.8"/>
<rect x="493" y="20" width="4.62963" height="4.62963" fill="#6777C4" fill-opacity="0.8"/>
<rect x="503" y="20" width="4.62963" height="4.62963" fill="#6777C4" fill-opacity="0.8"/>
<rect x="513" y="20" width="4.62963" height="4.62963" fill="#6777C4" fill-opacity="0.8"/>
<rect x="533" y="20" width="4.62963" height="4.62963" fill="#6777C4" fill-opacity="0.8"/>
<rect x="523" y="20" width="4.62963" height="4.62963" fill="#6777C4" fill-opacity="0.8"/>
<rect x="543" y="20" width="4.62963" height="4.62963" fill="#6777C4" fill-opacity="0.8"/>
<rect x="573" y="20" width="4.62963" height="4.62963" fill="#6777C4" fill-opacity="0.8"/>
<rect x="563" y="20" width="4.62963" height="4.62963" fill="#6777C4" fill-opacity="0.8"/>
<rect x="553" y="20" width="4.62963" height="4.62963" fill="#6777C4" fill-opacity="0.8"/>
<rect x="583" y="20" width="4.62963" height="4.62963" fill="#6777C4" fill-opacity="0.8"/>
<rect x="593" y="20" width="4.62963" height="4.62963" fill="#6777C4" fill-opacity="0.8"/>
<rect x="603" y="20" width="4.62963" height="4.62963" fill="#6777C4" fill-opacity="0.8"/>
<rect x="463" y="30" width="4.62963" height="4.62963" fill="#6777C4" fill-opacity="0.8"/>
<rect x="473" y="30" width="4.62963" height="4.62963" fill="#6777C4" fill-opacity="0.8"/>
<rect x="483" y="30" width="4.62963" height="4.62963" fill="#6777C4" fill-opacity="0.8"/>
<rect x="493" y="30" width="4.62963" height="4.62963" fill="#6777C4" fill-opacity="0.8"/>
<rect x="503" y="30" width="4.62963" height="4.62963" fill="#6777C4" fill-opacity="0.8"/>
<rect x="513" y="30" width="4.62963" height="4.62963" fill="#6777C4" fill-opacity="0.8"/>
<rect x="533" y="30" width="4.62963" height="4.62963" fill="#6777C4" fill-opacity="0.8"/>
<rect x="523" y="30" width="4.62963" height="4.62963" fill="#6777C4" fill-opacity="0.8"/>
<rect x="543" y="30" width="4.62963" height="4.62963" fill="#6777C4" fill-opacity="0.8"/>
<rect x="573" y="30" width="4.62963" height="4.62963" fill="#6777C4" fill-opacity="0.8"/>
<rect x="563" y="30" width="4.62963" height="4.62963" fill="#6777C4" fill-opacity="0.8"/>
<rect x="553" y="30" width="4.62963" height="4.62963" fill="#6777C4" fill-opacity="0.8"/>
<rect x="583" y="30" width="4.62963" height="4.62963" fill="#6777C4" fill-opacity="0.8"/>
<rect x="593" y="30" width="4.62963" height="4.62963" fill="#6777C4" fill-opacity="0.8"/>
<rect x="603" y="30" width="4.62963" height="4.62963" fill="#6777C4" fill-opacity="0.8"/>
<rect x="199" y="135" width="4.62963" height="4.62963" fill="#6777C4" fill-opacity="0.5"/>
<rect x="209" y="135" width="4.62963" height="4.62963" fill="#6777C4" fill-opacity="0.5"/>
<rect x="219" y="135" width="4.62963" height="4.62963" fill="#6777C4" fill-opacity="0.5"/>
<rect x="229" y="135" width="4.62963" height="4.62963" fill="#6777C4" fill-opacity="0.5"/>
<rect x="239" y="135" width="4.62963" height="4.62963" fill="#6777C4" fill-opacity="0.5"/>
<rect x="249" y="135" width="4.62963" height="4.62963" fill="#6777C4" fill-opacity="0.5"/>
<rect x="269" y="135" width="4.62963" height="4.62963" fill="#6777C4" fill-opacity="0.5"/>
<rect x="259" y="135" width="4.62963" height="4.62963" fill="#6777C4" fill-opacity="0.5"/>
<rect x="279" y="135" width="4.62963" height="4.62963" fill="#6777C4" fill-opacity="0.5"/>
<rect x="309" y="135" width="4.62963" height="4.62963" fill="#6777C4" fill-opacity="0.5"/>
<rect x="299" y="135" width="4.62963" height="4.62963" fill="#6777C4" fill-opacity="0.5"/>
<rect x="289" y="135" width="4.62963" height="4.62963" fill="#6777C4" fill-opacity="0.5"/>
<rect x="319" y="135" width="4.62963" height="4.62963" fill="#6777C4" fill-opacity="0.5"/>
<rect x="329" y="135" width="4.62963" height="4.62963" fill="#6777C4" fill-opacity="0.5"/>
<rect x="339" y="135" width="4.62963" height="4.62963" fill="#6777C4" fill-opacity="0.5"/>
<rect x="199" y="145" width="4.62963" height="4.62963" fill="#6777C4" fill-opacity="0.5"/>
<rect x="209" y="145" width="4.62963" height="4.62963" fill="#6777C4" fill-opacity="0.5"/>
<rect x="219" y="145" width="4.62963" height="4.62963" fill="#6777C4" fill-opacity="0.5"/>
<rect x="229" y="145" width="4.62963" height="4.62963" fill="#6777C4" fill-opacity="0.5"/>
<rect x="239" y="145" width="4.62963" height="4.62963" fill="#6777C4" fill-opacity="0.5"/>
<rect x="249" y="145" width="4.62963" height="4.62963" fill="#6777C4" fill-opacity="0.5"/>
<rect x="269" y="145" width="4.62963" height="4.62963" fill="#6777C4" fill-opacity="0.5"/>
<rect x="259" y="145" width="4.62963" height="4.62963" fill="#6777C4" fill-opacity="0.5"/>
<rect x="279" y="145" width="4.62963" height="4.62963" fill="#6777C4" fill-opacity="0.5"/>
<rect x="309" y="145" width="4.62963" height="4.62963" fill="#6777C4" fill-opacity="0.5"/>
<rect x="299" y="145" width="4.62963" height="4.62963" fill="#6777C4" fill-opacity="0.5"/>
<rect x="289" y="145" width="4.62963" height="4.62963" fill="#6777C4" fill-opacity="0.5"/>
<rect x="319" y="145" width="4.62963" height="4.62963" fill="#6777C4" fill-opacity="0.5"/>
<rect x="329" y="145" width="4.62963" height="4.62963" fill="#6777C4" fill-opacity="0.5"/>
<rect x="339" y="145" width="4.62963" height="4.62963" fill="#6777C4" fill-opacity="0.5"/>
<rect x="199" y="155" width="4.62963" height="4.62963" fill="#6777C4" fill-opacity="0.5"/>
<rect x="209" y="155" width="4.62963" height="4.62963" fill="#6777C4" fill-opacity="0.5"/>
<rect x="219" y="155" width="4.62963" height="4.62963" fill="#6777C4" fill-opacity="0.5"/>
<rect x="229" y="155" width="4.62963" height="4.62963" fill="#6777C4" fill-opacity="0.5"/>
<rect x="239" y="155" width="4.62963" height="4.62963" fill="#6777C4" fill-opacity="0.5"/>
<rect x="249" y="155" width="4.62963" height="4.62963" fill="#6777C4" fill-opacity="0.5"/>
<rect x="269" y="155" width="4.62963" height="4.62963" fill="#6777C4" fill-opacity="0.5"/>
<rect x="259" y="155" width="4.62963" height="4.62963" fill="#6777C4" fill-opacity="0.5"/>
<rect x="279" y="155" width="4.62963" height="4.62963" fill="#6777C4" fill-opacity="0.5"/>
<rect x="309" y="155" width="4.62963" height="4.62963" fill="#6777C4" fill-opacity="0.5"/>
<rect x="299" y="155" width="4.62963" height="4.62963" fill="#6777C4" fill-opacity="0.5"/>
<rect x="289" y="155" width="4.62963" height="4.62963" fill="#6777C4" fill-opacity="0.5"/>
<rect x="319" y="155" width="4.62963" height="4.62963" fill="#6777C4" fill-opacity="0.5"/>
<rect x="329" y="155" width="4.62963" height="4.62963" fill="#6777C4" fill-opacity="0.5"/>
<rect x="339" y="155" width="4.62963" height="4.62963" fill="#6777C4" fill-opacity="0.5"/>
<rect x="199" y="165" width="4.62963" height="4.62963" fill="#6777C4" fill-opacity="0.5"/>
<rect x="209" y="165" width="4.62963" height="4.62963" fill="#6777C4" fill-opacity="0.5"/>
<rect x="219" y="165" width="4.62963" height="4.62963" fill="#6777C4" fill-opacity="0.5"/>
<rect x="229" y="165" width="4.62963" height="4.62963" fill="#6777C4" fill-opacity="0.5"/>
<rect x="239" y="165" width="4.62963" height="4.62963" fill="#6777C4" fill-opacity="0.5"/>
<rect x="249" y="165" width="4.62963" height="4.62963" fill="#6777C4" fill-opacity="0.5"/>
<rect x="269" y="165" width="4.62963" height="4.62963" fill="#6777C4" fill-opacity="0.5"/>
<rect x="259" y="165" width="4.62963" height="4.62963" fill="#6777C4" fill-opacity="0.5"/>
<rect x="279" y="165" width="4.62963" height="4.62963" fill="#6777C4" fill-opacity="0.5"/>
<rect x="309" y="165" width="4.62963" height="4.62963" fill="#6777C4" fill-opacity="0.5"/>
<rect x="299" y="165" width="4.62963" height="4.62963" fill="#6777C4" fill-opacity="0.5"/>
<rect x="289" y="165" width="4.62963" height="4.62963" fill="#6777C4" fill-opacity="0.5"/>
<rect x="319" y="165" width="4.62963" height="4.62963" fill="#6777C4" fill-opacity="0.5"/>
<rect x="329" y="165" width="4.62963" height="4.62963" fill="#6777C4" fill-opacity="0.5"/>
<rect x="339" y="165" width="4.62963" height="4.62963" fill="#6777C4" fill-opacity="0.5"/>
<rect x="199" y="175" width="4.62963" height="4.62963" fill="#6777C4" fill-opacity="0.5"/>
<rect x="209" y="175" width="4.62963" height="4.62963" fill="#6777C4" fill-opacity="0.5"/>
<rect x="219" y="175" width="4.62963" height="4.62963" fill="#6777C4" fill-opacity="0.5"/>
<rect x="229" y="175" width="4.62963" height="4.62963" fill="#6777C4" fill-opacity="0.5"/>
<rect x="239" y="175" width="4.62963" height="4.62963" fill="#6777C4" fill-opacity="0.5"/>
<rect x="249" y="175" width="4.62963" height="4.62963" fill="#6777C4" fill-opacity="0.5"/>
<rect x="269" y="175" width="4.62963" height="4.62963" fill="#6777C4" fill-opacity="0.5"/>
<rect x="259" y="175" width="4.62963" height="4.62963" fill="#6777C4" fill-opacity="0.5"/>
<rect x="279" y="175" width="4.62963" height="4.62963" fill="#6777C4" fill-opacity="0.5"/>
<rect x="309" y="175" width="4.62963" height="4.62963" fill="#6777C4" fill-opacity="0.5"/>
<rect x="299" y="175" width="4.62963" height="4.62963" fill="#6777C4" fill-opacity="0.5"/>
<rect x="289" y="175" width="4.62963" height="4.62963" fill="#6777C4" fill-opacity="0.5"/>
<rect x="319" y="175" width="4.62963" height="4.62963" fill="#6777C4" fill-opacity="0.5"/>
<rect x="329" y="175" width="4.62963" height="4.62963" fill="#6777C4" fill-opacity="0.5"/>
<rect x="339" y="175" width="4.62963" height="4.62963" fill="#6777C4" fill-opacity="0.5"/>
<rect x="199" y="185" width="4.62963" height="4.62963" fill="#6777C4" fill-opacity="0.5"/>
<rect x="209" y="185" width="4.62963" height="4.62963" fill="#6777C4" fill-opacity="0.5"/>
<rect x="219" y="185" width="4.62963" height="4.62963" fill="#6777C4" fill-opacity="0.5"/>
<rect x="229" y="185" width="4.62963" height="4.62963" fill="#6777C4" fill-opacity="0.5"/>
<rect x="239" y="185" width="4.62963" height="4.62963" fill="#6777C4" fill-opacity="0.5"/>
<rect x="249" y="185" width="4.62963" height="4.62963" fill="#6777C4" fill-opacity="0.5"/>
<rect x="269" y="185" width="4.62963" height="4.62963" fill="#6777C4" fill-opacity="0.5"/>
<rect x="259" y="185" width="4.62963" height="4.62963" fill="#6777C4" fill-opacity="0.5"/>
<rect x="279" y="185" width="4.62963" height="4.62963" fill="#6777C4" fill-opacity="0.5"/>
<rect x="309" y="185" width="4.62963" height="4.62963" fill="#6777C4" fill-opacity="0.5"/>
<rect x="299" y="185" width="4.62963" height="4.62963" fill="#6777C4" fill-opacity="0.5"/>
<rect x="289" y="185" width="4.62963" height="4.62963" fill="#6777C4" fill-opacity="0.5"/>
<rect x="319" y="185" width="4.62963" height="4.62963" fill="#6777C4" fill-opacity="0.5"/>
<rect x="329" y="185" width="4.62963" height="4.62963" fill="#6777C4" fill-opacity="0.5"/>
<rect x="339" y="185" width="4.62963" height="4.62963" fill="#6777C4" fill-opacity="0.5"/>
<rect x="199" y="195" width="4.62963" height="4.62963" fill="#6777C4" fill-opacity="0.5"/>
<rect x="209" y="195" width="4.62963" height="4.62963" fill="#6777C4" fill-opacity="0.5"/>
<rect x="219" y="195" width="4.62963" height="4.62963" fill="#6777C4" fill-opacity="0.5"/>
<rect x="229" y="195" width="4.62963" height="4.62963" fill="#6777C4" fill-opacity="0.5"/>
<rect x="239" y="195" width="4.62963" height="4.62963" fill="#6777C4" fill-opacity="0.5"/>
<rect x="249" y="195" width="4.62963" height="4.62963" fill="#6777C4" fill-opacity="0.5"/>
<rect x="269" y="195" width="4.62963" height="4.62963" fill="#6777C4" fill-opacity="0.5"/>
<rect x="259" y="195" width="4.62963" height="4.62963" fill="#6777C4" fill-opacity="0.5"/>
<rect x="279" y="195" width="4.62963" height="4.62963" fill="#6777C4" fill-opacity="0.5"/>
<rect x="309" y="195" width="4.62963" height="4.62963" fill="#6777C4" fill-opacity="0.5"/>
<rect x="299" y="195" width="4.62963" height="4.62963" fill="#6777C4" fill-opacity="0.5"/>
<rect x="289" y="195" width="4.62963" height="4.62963" fill="#6777C4" fill-opacity="0.5"/>
<rect x="319" y="195" width="4.62963" height="4.62963" fill="#6777C4" fill-opacity="0.5"/>
<rect x="329" y="195" width="4.62963" height="4.62963" fill="#6777C4" fill-opacity="0.5"/>
<rect x="339" y="195" width="4.62963" height="4.62963" fill="#6777C4" fill-opacity="0.5"/>
<rect x="199" y="205" width="4.62963" height="4.62963" fill="#6777C4" fill-opacity="0.5"/>
<rect x="209" y="205" width="4.62963" height="4.62963" fill="#6777C4" fill-opacity="0.5"/>
<rect x="219" y="205" width="4.62963" height="4.62963" fill="#6777C4" fill-opacity="0.5"/>
<rect x="229" y="205" width="4.62963" height="4.62963" fill="#6777C4" fill-opacity="0.5"/>
<rect x="239" y="205" width="4.62963" height="4.62963" fill="#6777C4" fill-opacity="0.5"/>
<rect x="249" y="205" width="4.62963" height="4.62963" fill="#6777C4" fill-opacity="0.5"/>
<rect x="269" y="205" width="4.62963" height="4.62963" fill="#6777C4" fill-opacity="0.5"/>
<rect x="259" y="205" width="4.62963" height="4.62963" fill="#6777C4" fill-opacity="0.5"/>
<rect x="279" y="205" width="4.62963" height="4.62963" fill="#6777C4" fill-opacity="0.5"/>
<rect x="309" y="205" width="4.62963" height="4.62963" fill="#6777C4" fill-opacity="0.5"/>
<rect x="299" y="205" width="4.62963" height="4.62963" fill="#6777C4" fill-opacity="0.5"/>
<rect x="289" y="205" width="4.62963" height="4.62963" fill="#6777C4" fill-opacity="0.5"/>
<rect x="319" y="205" width="4.62963" height="4.62963" fill="#6777C4" fill-opacity="0.5"/>
<rect x="329" y="205" width="4.62963" height="4.62963" fill="#6777C4" fill-opacity="0.5"/>
<rect x="339" y="205" width="4.62963" height="4.62963" fill="#6777C4" fill-opacity="0.5"/>
<rect x="199" y="95" width="4.62963" height="4.62963" fill="#6777C4" fill-opacity="0.5"/>
<rect x="209" y="95" width="4.62963" height="4.62963" fill="#6777C4" fill-opacity="0.5"/>
<rect x="219" y="95" width="4.62963" height="4.62963" fill="#6777C4" fill-opacity="0.5"/>
<rect x="229" y="95" width="4.62963" height="4.62963" fill="#6777C4" fill-opacity="0.5"/>
<rect x="239" y="95" width="4.62963" height="4.62963" fill="#6777C4" fill-opacity="0.5"/>
<rect x="249" y="95" width="4.62963" height="4.62963" fill="#6777C4" fill-opacity="0.5"/>
<rect x="269" y="95" width="4.62963" height="4.62963" fill="#6777C4" fill-opacity="0.5"/>
<rect x="259" y="95" width="4.62963" height="4.62963" fill="#6777C4" fill-opacity="0.5"/>
<rect x="279" y="95" width="4.62963" height="4.62963" fill="#6777C4" fill-opacity="0.5"/>
<rect x="309" y="95" width="4.62963" height="4.62963" fill="#6777C4" fill-opacity="0.5"/>
<rect x="299" y="95" width="4.62963" height="4.62963" fill="#6777C4" fill-opacity="0.5"/>
<rect x="289" y="95" width="4.62963" height="4.62963" fill="#6777C4" fill-opacity="0.5"/>
<rect x="319" y="95" width="4.62963" height="4.62963" fill="#6777C4" fill-opacity="0.5"/>
<rect x="329" y="95" width="4.62963" height="4.62963" fill="#6777C4" fill-opacity="0.5"/>
<rect x="339" y="95" width="4.62963" height="4.62963" fill="#6777C4" fill-opacity="0.5"/>
<rect x="199" y="105" width="4.62963" height="4.62963" fill="#6777C4" fill-opacity="0.5"/>
<rect x="209" y="105" width="4.62963" height="4.62963" fill="#6777C4" fill-opacity="0.5"/>
<rect x="219" y="105" width="4.62963" height="4.62963" fill="#6777C4" fill-opacity="0.5"/>
<rect x="229" y="105" width="4.62963" height="4.62963" fill="#6777C4" fill-opacity="0.5"/>
<rect x="239" y="105" width="4.62963" height="4.62963" fill="#6777C4" fill-opacity="0.5"/>
<rect x="249" y="105" width="4.62963" height="4.62963" fill="#6777C4" fill-opacity="0.5"/>
<rect x="269" y="105" width="4.62963" height="4.62963" fill="#6777C4" fill-opacity="0.5"/>
<rect x="259" y="105" width="4.62963" height="4.62963" fill="#6777C4" fill-opacity="0.5"/>
<rect x="279" y="105" width="4.62963" height="4.62963" fill="#6777C4" fill-opacity="0.5"/>
<rect x="309" y="105" width="4.62963" height="4.62963" fill="#6777C4" fill-opacity="0.5"/>
<rect x="299" y="105" width="4.62963" height="4.62963" fill="#6777C4" fill-opacity="0.5"/>
<rect x="289" y="105" width="4.62963" height="4.62963" fill="#6777C4" fill-opacity="0.5"/>
<rect x="319" y="105" width="4.62963" height="4.62963" fill="#6777C4" fill-opacity="0.5"/>
<rect x="329" y="105" width="4.62963" height="4.62963" fill="#6777C4" fill-opacity="0.5"/>
<rect x="339" y="105" width="4.62963" height="4.62963" fill="#6777C4" fill-opacity="0.5"/>
<rect x="199" y="115" width="4.62963" height="4.62963" fill="#6777C4" fill-opacity="0.5"/>
<rect x="209" y="115" width="4.62963" height="4.62963" fill="#6777C4" fill-opacity="0.5"/>
<rect x="219" y="115" width="4.62963" height="4.62963" fill="#6777C4" fill-opacity="0.5"/>
<rect x="229" y="115" width="4.62963" height="4.62963" fill="#6777C4" fill-opacity="0.5"/>
<rect x="239" y="115" width="4.62963" height="4.62963" fill="#6777C4" fill-opacity="0.5"/>
<rect x="249" y="115" width="4.62963" height="4.62963" fill="#6777C4" fill-opacity="0.5"/>
<rect x="269" y="115" width="4.62963" height="4.62963" fill="#6777C4" fill-opacity="0.5"/>
<rect x="259" y="115" width="4.62963" height="4.62963" fill="#6777C4" fill-opacity="0.5"/>
<rect x="279" y="115" width="4.62963" height="4.62963" fill="#6777C4" fill-opacity="0.5"/>
<rect x="309" y="115" width="4.62963" height="4.62963" fill="#6777C4" fill-opacity="0.5"/>
<rect x="299" y="115" width="4.62963" height="4.62963" fill="#6777C4" fill-opacity="0.5"/>
<rect x="289" y="115" width="4.62963" height="4.62963" fill="#6777C4" fill-opacity="0.5"/>
<rect x="319" y="115" width="4.62963" height="4.62963" fill="#6777C4" fill-opacity="0.5"/>
<rect x="329" y="115" width="4.62963" height="4.62963" fill="#6777C4" fill-opacity="0.5"/>
<rect x="339" y="115" width="4.62963" height="4.62963" fill="#6777C4" fill-opacity="0.5"/>
<rect x="199" y="125" width="4.62963" height="4.62963" fill="#6777C4" fill-opacity="0.5"/>
<rect x="209" y="125" width="4.62963" height="4.62963" fill="#6777C4" fill-opacity="0.5"/>
<rect x="219" y="125" width="4.62963" height="4.62963" fill="#6777C4" fill-opacity="0.5"/>
<rect x="229" y="125" width="4.62963" height="4.62963" fill="#6777C4" fill-opacity="0.5"/>
<rect x="239" y="125" width="4.62963" height="4.62963" fill="#6777C4" fill-opacity="0.5"/>
<rect x="249" y="125" width="4.62963" height="4.62963" fill="#6777C4" fill-opacity="0.5"/>
<rect x="269" y="125" width="4.62963" height="4.62963" fill="#6777C4" fill-opacity="0.5"/>
<rect x="259" y="125" width="4.62963" height="4.62963" fill="#6777C4" fill-opacity="0.5"/>
<rect x="279" y="125" width="4.62963" height="4.62963" fill="#6777C4" fill-opacity="0.5"/>
<rect x="309" y="125" width="4.62963" height="4.62963" fill="#6777C4" fill-opacity="0.5"/>
<rect x="299" y="125" width="4.62963" height="4.62963" fill="#6777C4" fill-opacity="0.5"/>
<rect x="289" y="125" width="4.62963" height="4.62963" fill="#6777C4" fill-opacity="0.5"/>
<rect x="319" y="125" width="4.62963" height="4.62963" fill="#6777C4" fill-opacity="0.5"/>
<rect x="329" y="125" width="4.62963" height="4.62963" fill="#6777C4" fill-opacity="0.5"/>
<rect x="339" y="125" width="4.62963" height="4.62963" fill="#6777C4" fill-opacity="0.5"/>
<rect y="234" width="4.62963" height="4.62963" fill="#6777C4" fill-opacity="0.8"/>
<rect x="10" y="234" width="4.62963" height="4.62963" fill="#6777C4" fill-opacity="0.8"/>
<rect x="20" y="234" width="4.62963" height="4.62963" fill="#6777C4" fill-opacity="0.8"/>
<rect x="30" y="234" width="4.62963" height="4.62963" fill="#6777C4" fill-opacity="0.8"/>
<rect x="40" y="234" width="4.62963" height="4.62963" fill="#6777C4" fill-opacity="0.8"/>
<rect x="50" y="234" width="4.62963" height="4.62963" fill="#6777C4" fill-opacity="0.8"/>
<rect x="70" y="234" width="4.62963" height="4.62963" fill="#6777C4" fill-opacity="0.8"/>
<rect x="60" y="234" width="4.62963" height="4.62963" fill="#6777C4" fill-opacity="0.8"/>
<rect x="80" y="234" width="4.62963" height="4.62963" fill="#6777C4" fill-opacity="0.8"/>
<rect x="110" y="234" width="4.62963" height="4.62963" fill="#6777C4" fill-opacity="0.8"/>
<rect x="100" y="234" width="4.62963" height="4.62963" fill="#6777C4" fill-opacity="0.8"/>
<rect x="90" y="234" width="4.62963" height="4.62963" fill="#6777C4" fill-opacity="0.8"/>
<rect x="120" y="234" width="4.62963" height="4.62963" fill="#6777C4" fill-opacity="0.8"/>
<rect x="130" y="234" width="4.62963" height="4.62963" fill="#6777C4" fill-opacity="0.8"/>
<rect y="244" width="4.62963" height="4.62963" fill="#6777C4" fill-opacity="0.8"/>
<rect x="10" y="244" width="4.62963" height="4.62963" fill="#6777C4" fill-opacity="0.8"/>
<rect x="20" y="244" width="4.62963" height="4.62963" fill="#6777C4" fill-opacity="0.8"/>
<rect x="30" y="244" width="4.62963" height="4.62963" fill="#6777C4" fill-opacity="0.8"/>
<rect x="40" y="244" width="4.62963" height="4.62963" fill="#6777C4" fill-opacity="0.8"/>
<rect x="50" y="244" width="4.62963" height="4.62963" fill="#6777C4" fill-opacity="0.8"/>
<rect x="70" y="244" width="4.62963" height="4.62963" fill="#6777C4" fill-opacity="0.8"/>
<rect x="60" y="244" width="4.62963" height="4.62963" fill="#6777C4" fill-opacity="0.8"/>
<rect x="80" y="244" width="4.62963" height="4.62963" fill="#6777C4" fill-opacity="0.8"/>
<rect x="110" y="244" width="4.62963" height="4.62963" fill="#6777C4" fill-opacity="0.8"/>
<rect x="100" y="244" width="4.62963" height="4.62963" fill="#6777C4" fill-opacity="0.8"/>
<rect x="90" y="244" width="4.62963" height="4.62963" fill="#6777C4" fill-opacity="0.8"/>
<rect x="120" y="244" width="4.62963" height="4.62963" fill="#6777C4" fill-opacity="0.8"/>
<rect x="130" y="244" width="4.62963" height="4.62963" fill="#6777C4" fill-opacity="0.8"/>
<rect y="254" width="4.62963" height="4.62963" fill="#6777C4" fill-opacity="0.8"/>
<rect x="10" y="254" width="4.62963" height="4.62963" fill="#6777C4" fill-opacity="0.8"/>
<rect x="20" y="254" width="4.62963" height="4.62963" fill="#6777C4" fill-opacity="0.8"/>
<rect x="30" y="254" width="4.62963" height="4.62963" fill="#6777C4" fill-opacity="0.8"/>
<rect x="40" y="254" width="4.62963" height="4.62963" fill="#6777C4" fill-opacity="0.8"/>
<rect x="50" y="254" width="4.62963" height="4.62963" fill="#6777C4" fill-opacity="0.8"/>
<rect x="70" y="254" width="4.62963" height="4.62963" fill="#6777C4" fill-opacity="0.8"/>
<rect x="60" y="254" width="4.62963" height="4.62963" fill="#6777C4" fill-opacity="0.8"/>
<rect x="80" y="254" width="4.62963" height="4.62963" fill="#6777C4" fill-opacity="0.8"/>
<rect x="110" y="254" width="4.62963" height="4.62963" fill="#6777C4" fill-opacity="0.8"/>
<rect x="100" y="254" width="4.62963" height="4.62963" fill="#6777C4" fill-opacity="0.8"/>
<rect x="90" y="254" width="4.62963" height="4.62963" fill="#6777C4" fill-opacity="0.8"/>
<rect x="120" y="254" width="4.62963" height="4.62963" fill="#6777C4" fill-opacity="0.8"/>
<rect x="130" y="254" width="4.62963" height="4.62963" fill="#6777C4" fill-opacity="0.8"/>
<rect y="264" width="4.62963" height="4.62963" fill="#6777C4" fill-opacity="0.8"/>
<rect x="10" y="264" width="4.62963" height="4.62963" fill="#6777C4" fill-opacity="0.8"/>
<rect x="20" y="264" width="4.62963" height="4.62963" fill="#6777C4" fill-opacity="0.8"/>
<rect x="30" y="264" width="4.62963" height="4.62963" fill="#6777C4" fill-opacity="0.8"/>
<rect x="40" y="264" width="4.62963" height="4.62963" fill="#6777C4" fill-opacity="0.8"/>
<rect x="50" y="264" width="4.62963" height="4.62963" fill="#6777C4" fill-opacity="0.8"/>
<rect x="70" y="264" width="4.62963" height="4.62963" fill="#6777C4" fill-opacity="0.8"/>
<rect x="60" y="264" width="4.62963" height="4.62963" fill="#6777C4" fill-opacity="0.8"/>
<rect x="80" y="264" width="4.62963" height="4.62963" fill="#6777C4" fill-opacity="0.8"/>
<rect x="110" y="264" width="4.62963" height="4.62963" fill="#6777C4" fill-opacity="0.8"/>
<rect x="100" y="264" width="4.62963" height="4.62963" fill="#6777C4" fill-opacity="0.8"/>
<rect x="90" y="264" width="4.62963" height="4.62963" fill="#6777C4" fill-opacity="0.8"/>
<rect x="120" y="264" width="4.62963" height="4.62963" fill="#6777C4" fill-opacity="0.8"/>
<rect x="130" y="264" width="4.62963" height="4.62963" fill="#6777C4" fill-opacity="0.8"/>
<rect y="274" width="4.62963" height="4.62963" fill="#6777C4" fill-opacity="0.8"/>
<rect x="10" y="274" width="4.62963" height="4.62963" fill="#6777C4" fill-opacity="0.8"/>
<rect x="20" y="274" width="4.62963" height="4.62963" fill="#6777C4" fill-opacity="0.8"/>
<rect x="30" y="274" width="4.62963" height="4.62963" fill="#6777C4" fill-opacity="0.8"/>
<rect x="40" y="274" width="4.62963" height="4.62963" fill="#6777C4" fill-opacity="0.8"/>
<rect x="50" y="274" width="4.62963" height="4.62963" fill="#6777C4" fill-opacity="0.8"/>
<rect x="70" y="274" width="4.62963" height="4.62963" fill="#6777C4" fill-opacity="0.8"/>
<rect x="60" y="274" width="4.62963" height="4.62963" fill="#6777C4" fill-opacity="0.8"/>
<rect x="80" y="274" width="4.62963" height="4.62963" fill="#6777C4" fill-opacity="0.8"/>
<rect x="110" y="274" width="4.62963" height="4.62963" fill="#6777C4" fill-opacity="0.8"/>
<rect x="100" y="274" width="4.62963" height="4.62963" fill="#6777C4" fill-opacity="0.8"/>
<rect x="90" y="274" width="4.62963" height="4.62963" fill="#6777C4" fill-opacity="0.8"/>
<rect y="284" width="4.62963" height="4.62963" fill="#6777C4" fill-opacity="0.8"/>
<rect x="10" y="284" width="4.62963" height="4.62963" fill="#6777C4" fill-opacity="0.8"/>
<rect x="20" y="284" width="4.62963" height="4.62963" fill="#6777C4" fill-opacity="0.8"/>
<rect x="30" y="284" width="4.62963" height="4.62963" fill="#6777C4" fill-opacity="0.8"/>
<rect x="40" y="284" width="4.62963" height="4.62963" fill="#6777C4" fill-opacity="0.8"/>
<rect x="50" y="284" width="4.62963" height="4.62963" fill="#6777C4" fill-opacity="0.8"/>
<rect x="70" y="284" width="4.62963" height="4.62963" fill="#6777C4" fill-opacity="0.8"/>
<rect x="60" y="284" width="4.62963" height="4.62963" fill="#6777C4" fill-opacity="0.8"/>
<rect x="80" y="284" width="4.62963" height="4.62963" fill="#6777C4" fill-opacity="0.8"/>
<rect x="110" y="284" width="4.62963" height="4.62963" fill="#6777C4" fill-opacity="0.8"/>
<rect x="100" y="284" width="4.62963" height="4.62963" fill="#6777C4" fill-opacity="0.8"/>
<rect x="90" y="284" width="4.62963" height="4.62963" fill="#6777C4" fill-opacity="0.8"/>
<rect y="294" width="4.62963" height="4.62963" fill="#6777C4" fill-opacity="0.8"/>
<rect x="10" y="294" width="4.62963" height="4.62963" fill="#6777C4" fill-opacity="0.8"/>
<rect x="20" y="294" width="4.62963" height="4.62963" fill="#6777C4" fill-opacity="0.8"/>
<rect x="30" y="294" width="4.62963" height="4.62963" fill="#6777C4" fill-opacity="0.8"/>
<rect x="40" y="294" width="4.62963" height="4.62963" fill="#6777C4" fill-opacity="0.8"/>
<rect x="50" y="294" width="4.62963" height="4.62963" fill="#6777C4" fill-opacity="0.8"/>
<rect x="70" y="294" width="4.62963" height="4.62963" fill="#6777C4" fill-opacity="0.8"/>
<rect x="60" y="294" width="4.62963" height="4.62963" fill="#6777C4" fill-opacity="0.8"/>
<rect x="80" y="294" width="4.62963" height="4.62963" fill="#6777C4" fill-opacity="0.8"/>
<rect x="110" y="294" width="4.62963" height="4.62963" fill="#6777C4" fill-opacity="0.8"/>
<rect x="100" y="294" width="4.62963" height="4.62963" fill="#6777C4" fill-opacity="0.8"/>
<rect x="90" y="294" width="4.62963" height="4.62963" fill="#6777C4" fill-opacity="0.8"/>
<rect y="304" width="4.62963" height="4.62963" fill="#6777C4" fill-opacity="0.8"/>
<rect x="10" y="304" width="4.62963" height="4.62963" fill="#6777C4" fill-opacity="0.8"/>
<rect x="20" y="304" width="4.62963" height="4.62963" fill="#6777C4" fill-opacity="0.8"/>
<rect x="30" y="304" width="4.62963" height="4.62963" fill="#6777C4" fill-opacity="0.8"/>
<rect x="40" y="304" width="4.62963" height="4.62963" fill="#6777C4" fill-opacity="0.8"/>
<rect x="50" y="304" width="4.62963" height="4.62963" fill="#6777C4" fill-opacity="0.8"/>
<rect x="70" y="304" width="4.62963" height="4.62963" fill="#6777C4" fill-opacity="0.8"/>
<rect x="60" y="304" width="4.62963" height="4.62963" fill="#6777C4" fill-opacity="0.8"/>
<rect x="80" y="304" width="4.62963" height="4.62963" fill="#6777C4" fill-opacity="0.8"/>
<rect x="110" y="304" width="4.62963" height="4.62963" fill="#6777C4" fill-opacity="0.8"/>
<rect x="100" y="304" width="4.62963" height="4.62963" fill="#6777C4" fill-opacity="0.8"/>
<rect x="90" y="304" width="4.62963" height="4.62963" fill="#6777C4" fill-opacity="0.8"/>
<rect x="40" y="194" width="4.62963" height="4.62963" fill="#6777C4" fill-opacity="0.8"/>
<rect x="50" y="194" width="4.62963" height="4.62963" fill="#6777C4" fill-opacity="0.8"/>
<rect x="70" y="194" width="4.62963" height="4.62963" fill="#6777C4" fill-opacity="0.8"/>
<rect x="60" y="194" width="4.62963" height="4.62963" fill="#6777C4" fill-opacity="0.8"/>
<rect x="80" y="194" width="4.62963" height="4.62963" fill="#6777C4" fill-opacity="0.8"/>
<rect x="110" y="194" width="4.62963" height="4.62963" fill="#6777C4" fill-opacity="0.8"/>
<rect x="100" y="194" width="4.62963" height="4.62963" fill="#6777C4" fill-opacity="0.8"/>
<rect x="90" y="194" width="4.62963" height="4.62963" fill="#6777C4" fill-opacity="0.8"/>
<rect x="70" y="204" width="4.62963" height="4.62963" fill="#6777C4" fill-opacity="0.8"/>
<rect x="60" y="204" width="4.62963" height="4.62963" fill="#6777C4" fill-opacity="0.8"/>
<rect x="80" y="204" width="4.62963" height="4.62963" fill="#6777C4" fill-opacity="0.8"/>
<rect x="110" y="204" width="4.62963" height="4.62963" fill="#6777C4" fill-opacity="0.8"/>
<rect x="100" y="204" width="4.62963" height="4.62963" fill="#6777C4" fill-opacity="0.8"/>
<rect x="90" y="204" width="4.62963" height="4.62963" fill="#6777C4" fill-opacity="0.8"/>
<rect x="120" y="204" width="4.62963" height="4.62963" fill="#6777C4" fill-opacity="0.8"/>
<rect x="130" y="204" width="4.62963" height="4.62963" fill="#6777C4" fill-opacity="0.8"/>
<rect y="224" width="4.62963" height="4.62963" fill="#6777C4" fill-opacity="0.8"/>
<rect x="10" y="224" width="4.62963" height="4.62963" fill="#6777C4" fill-opacity="0.8"/>
<rect x="20" y="224" width="4.62963" height="4.62963" fill="#6777C4" fill-opacity="0.8"/>
<rect x="30" y="224" width="4.62963" height="4.62963" fill="#6777C4" fill-opacity="0.8"/>
<g filter="url(#filter0_d)">
<rect x="39" y="142" width="100" height="100" transform="rotate(-90 39 142)" fill="url(#paint0_linear)"/>
</g>
<path d="M53.9443 98H49.0059V79.4395H59.9746V83.4639H53.9443V87.0059H59.5049V91.0303H53.9443V98ZM69.0188 98H64.0549V83.6162H69.0188V98ZM63.9279 80.0361C63.9279 79.2913 64.1353 78.737 64.55 78.373C64.9647 78.0091 65.6333 77.8271 66.5559 77.8271C67.4784 77.8271 68.1512 78.0133 68.5744 78.3857C68.9976 78.7581 69.2092 79.3083 69.2092 80.0361C69.2092 81.4919 68.3247 82.2197 66.5559 82.2197C64.8039 82.2197 63.9279 81.4919 63.9279 80.0361ZM87.3559 83.6162V86.0156L85.3881 86.7393C85.6589 87.2301 85.7943 87.8014 85.7943 88.4531C85.7943 90.002 85.2484 91.2038 84.1566 92.0586C83.0733 92.9134 81.4525 93.3408 79.2943 93.3408C78.7611 93.3408 78.338 93.307 78.0248 93.2393C77.9063 93.4593 77.8471 93.6667 77.8471 93.8613C77.8471 94.1068 78.046 94.2972 78.4438 94.4326C78.8415 94.5596 79.362 94.623 80.0053 94.623H82.392C85.6166 94.623 87.2289 95.9814 87.2289 98.6982C87.2289 100.45 86.4799 101.813 84.9818 102.786C83.4923 103.759 81.3975 104.246 78.6977 104.246C76.6579 104.246 75.0837 103.903 73.975 103.218C72.8747 102.541 72.3246 101.563 72.3246 100.285C72.3246 98.5671 73.391 97.4583 75.5238 96.959C75.0837 96.7728 74.6986 96.4723 74.3686 96.0576C74.0469 95.6429 73.8861 95.2324 73.8861 94.8262C73.8861 94.3776 74.0089 93.984 74.2543 93.6455C74.4997 93.2985 75.0118 92.888 75.7904 92.4141C75.0456 92.084 74.4574 91.5677 74.0258 90.8652C73.6026 90.1628 73.391 89.3079 73.391 88.3008C73.391 86.735 73.9242 85.5205 74.9906 84.6572C76.057 83.7939 77.5805 83.3623 79.5609 83.3623C79.8233 83.3623 80.2761 83.3919 80.9193 83.4512C81.5626 83.5104 82.0365 83.5654 82.3412 83.6162H87.3559ZM76.5141 99.79C76.5141 100.196 76.7341 100.522 77.1742 100.768C77.6143 101.021 78.2025 101.148 78.9389 101.148C80.1407 101.148 81.1013 100.996 81.8207 100.691C82.5486 100.395 82.9125 100.01 82.9125 99.5361C82.9125 99.1553 82.6924 98.8844 82.2523 98.7236C81.8122 98.5713 81.1817 98.4951 80.3607 98.4951H78.4184C77.8852 98.4951 77.4324 98.6178 77.06 98.8633C76.696 99.1172 76.5141 99.4261 76.5141 99.79ZM78.0756 88.3262C78.0756 89.7988 78.5876 90.5352 79.6117 90.5352C80.0857 90.5352 80.4496 90.3532 80.7035 89.9893C80.9659 89.6253 81.0971 89.0794 81.0971 88.3516C81.0971 86.862 80.602 86.1172 79.6117 86.1172C78.5876 86.1172 78.0756 86.8535 78.0756 88.3262ZM108.511 98V90.1797C108.511 89.2064 108.376 88.4785 108.105 87.9961C107.843 87.5052 107.424 87.2598 106.848 87.2598C106.087 87.2598 105.528 87.5856 105.172 88.2373C104.817 88.889 104.639 89.9089 104.639 91.2969V98H99.6627V90.1797C99.6627 89.2064 99.5357 88.4785 99.2818 87.9961C99.0279 87.5052 98.6174 87.2598 98.0504 87.2598C97.2717 87.2598 96.7047 87.6068 96.3492 88.3008C95.9938 88.9948 95.816 90.1289 95.816 91.7031V98H90.8521V83.6162H94.5973L95.2193 85.3936H95.5113C95.8922 84.7334 96.4423 84.2298 97.1617 83.8828C97.8896 83.5358 98.7148 83.3623 99.6373 83.3623C101.711 83.3623 103.167 83.9928 104.004 85.2539H104.398C104.804 84.6615 105.367 84.2002 106.087 83.8701C106.814 83.5316 107.614 83.3623 108.486 83.3623C110.187 83.3623 111.444 83.7982 112.256 84.6699C113.069 85.5417 113.475 86.8662 113.475 88.6436V98H108.511ZM127.534 98L126.582 96.0957H126.48C125.812 96.9251 125.13 97.4922 124.436 97.7969C123.742 98.1016 122.845 98.2539 121.745 98.2539C120.391 98.2539 119.324 97.8477 118.546 97.0352C117.767 96.2227 117.378 95.0801 117.378 93.6074C117.378 92.0755 117.911 90.9372 118.977 90.1924C120.044 89.4391 121.588 89.016 123.611 88.9229L126.011 88.8467V88.6436C126.011 87.4587 125.427 86.8662 124.259 86.8662C123.209 86.8662 121.876 87.2217 120.26 87.9326L118.825 84.6572C120.501 83.7939 122.617 83.3623 125.173 83.3623C127.018 83.3623 128.444 83.8193 129.451 84.7334C130.467 85.6475 130.974 86.9255 130.974 88.5674V98H127.534ZM123.852 94.75C124.453 94.75 124.965 94.5596 125.388 94.1787C125.82 93.7979 126.036 93.3027 126.036 92.6934V91.5762L124.893 91.627C123.26 91.6862 122.443 92.2871 122.443 93.4297C122.443 94.3099 122.913 94.75 123.852 94.75Z" fill="white"/>
<g filter="url(#filter1_d)">
<rect x="39" y="269" width="100" height="100" transform="rotate(-90 39 269)" fill="url(#paint1_linear)"/>
</g>
<path d="M64.6836 218.395H66.4766C68.1523 218.395 69.4062 218.066 70.2383 217.41C71.0703 216.742 71.4863 215.775 71.4863 214.51C71.4863 213.232 71.1348 212.289 70.4316 211.68C69.7402 211.07 68.6504 210.766 67.1621 210.766H64.6836V218.395ZM76.9883 214.316C76.9883 217.082 76.1211 219.197 74.3867 220.662C72.6641 222.127 70.209 222.859 67.0215 222.859H64.6836V232H59.2344V206.301H67.4434C70.5605 206.301 72.9277 206.975 74.5449 208.322C76.1738 209.658 76.9883 211.656 76.9883 214.316ZM95.4889 226.164C95.4889 228.18 94.7858 229.715 93.3795 230.77C91.985 231.824 89.8932 232.352 87.1041 232.352C85.6745 232.352 84.4557 232.252 83.4479 232.053C82.4401 231.865 81.4967 231.584 80.6178 231.209V226.779C81.6139 227.248 82.733 227.641 83.9752 227.957C85.2291 228.273 86.3307 228.432 87.2799 228.432C89.2252 228.432 90.1979 227.869 90.1979 226.744C90.1979 226.322 90.069 225.982 89.8112 225.725C89.5534 225.455 89.108 225.156 88.4752 224.828C87.8424 224.488 86.9987 224.096 85.944 223.65C84.4323 223.018 83.319 222.432 82.6041 221.893C81.901 221.354 81.3854 220.738 81.0573 220.047C80.7409 219.344 80.5827 218.482 80.5827 217.463C80.5827 215.717 81.2565 214.369 82.6041 213.42C83.9635 212.459 85.8854 211.979 88.3698 211.979C90.737 211.979 93.0397 212.494 95.278 213.525L93.6608 217.393C92.6764 216.971 91.7565 216.625 90.901 216.355C90.0455 216.086 89.1725 215.951 88.2819 215.951C86.6998 215.951 85.9088 216.379 85.9088 217.234C85.9088 217.715 86.1608 218.131 86.6647 218.482C87.1803 218.834 88.2995 219.355 90.0221 220.047C91.5573 220.668 92.6823 221.248 93.3971 221.787C94.112 222.326 94.6393 222.947 94.9791 223.65C95.319 224.354 95.4889 225.191 95.4889 226.164ZM106.255 232.352C103.947 232.352 102.13 231.455 100.806 229.662C99.4934 227.869 98.8372 225.385 98.8372 222.209C98.8372 218.986 99.5052 216.479 100.841 214.686C102.189 212.881 104.04 211.979 106.396 211.979C108.868 211.979 110.755 212.939 112.056 214.861H112.232C111.962 213.396 111.827 212.09 111.827 210.941V204.648H117.206V232H113.093L112.056 229.451H111.827C110.609 231.385 108.751 232.352 106.255 232.352ZM108.136 228.08C109.507 228.08 110.509 227.682 111.142 226.885C111.786 226.088 112.138 224.734 112.197 222.824V222.244C112.197 220.135 111.868 218.623 111.212 217.709C110.568 216.795 109.513 216.338 108.048 216.338C106.853 216.338 105.921 216.848 105.253 217.867C104.597 218.875 104.269 220.346 104.269 222.279C104.269 224.213 104.603 225.666 105.271 226.639C105.939 227.6 106.894 228.08 108.136 228.08Z" fill="white"/>
<path d="M275.284 123.852L303.436 151.997L275.281 180.142C273.939 181.484 273.939 183.654 275.281 184.996C276.622 186.335 278.796 186.335 280.138 184.996L310.719 154.425C312.061 153.087 312.061 150.913 310.719 149.575L280.139 119.004C278.797 117.665 276.619 117.665 275.277 119.004C273.942 120.339 273.942 122.513 275.284 123.852Z" fill="url(#paint2_linear)"/>
<path d="M556.519 265H415.354C408.54 264.982 403.018 259.46 403 252.646V50.3538C403.018 43.5402 408.54 38.0177 415.354 38H556.519C563.333 38.0177 568.855 43.5402 568.873 50.3538V252.646C568.855 259.46 563.333 264.982 556.519 265Z" fill="url(#paint3_linear)"/>
<path d="M560.567 53.819H411.314V240.31H560.567V53.819Z" fill="white"/>
<path d="M485.937 49.0379C487.676 49.0379 489.086 47.6278 489.086 45.8883C489.086 44.1488 487.676 42.7386 485.937 42.7386C484.197 42.7386 482.787 44.1488 482.787 45.8883C482.787 47.6278 484.197 49.0379 485.937 49.0379Z" fill="url(#paint4_linear)"/>
<g opacity="0.15">
<path opacity="0.15" d="M411.314 122.398V53.819H492.793L411.314 122.398Z" fill="white"/>
</g>
<path d="M485.075 261.684C490.06 261.684 494.102 257.642 494.102 252.657C494.102 247.671 490.06 243.63 485.075 243.63C480.089 243.63 476.048 247.671 476.048 252.657C476.048 257.642 480.089 261.684 485.075 261.684Z" fill="url(#paint5_linear)"/>
<path d="M485.075 256.988C482.674 256.988 480.73 255.044 480.73 252.643C480.73 250.242 482.674 248.298 485.075 248.298C487.476 248.298 489.42 250.242 489.42 252.643C489.416 255.04 487.473 256.984 485.075 256.988ZM485.075 249.561C483.372 249.561 481.993 250.94 481.993 252.643C481.993 254.345 483.372 255.725 485.075 255.725C486.777 255.725 488.157 254.345 488.157 252.643C488.154 250.94 486.777 249.564 485.075 249.561Z" fill="white"/>
<path d="M444.16 100.423L431.554 94.8623V93.0469L444.16 86.75V89.7969L435.477 93.8213L444.16 97.3887V100.423ZM464.135 103H460.212V94.9893H452.862V103H448.926V84.4395H452.862V91.7139H460.212V84.4395H464.135V103ZM477.292 103H473.357V87.7148H468.317V84.4395H482.332V87.7148H477.292V103ZM494.347 103L489.879 88.4385H489.764C489.925 91.4007 490.006 93.377 490.006 94.3672V103H486.489V84.4395H491.846L496.239 98.6328H496.315L500.974 84.4395H506.332V103H502.663V94.2148C502.663 93.8001 502.667 93.3219 502.675 92.7803C502.692 92.2386 502.752 90.7998 502.853 88.4639H502.739L497.953 103H494.347ZM512.316 103V84.4395H516.252V99.75H523.78V103H512.316ZM527.099 97.3887L535.782 93.8213L527.099 89.7969V86.75L539.705 93.0469V94.8623L527.099 100.423V97.3887Z" fill="#4241B7"/>
<path d="M456.08 161.572C456.08 160.836 455.801 160.273 455.242 159.884C454.692 159.494 453.888 159.3 452.83 159.3V156.266C453.897 156.266 454.705 156.079 455.255 155.707C455.805 155.335 456.08 154.801 456.08 154.107V154.006V149.969C456.08 148.674 456.491 147.764 457.312 147.239C458.133 146.706 459.576 146.439 461.641 146.439V149.296C460.803 149.321 460.223 149.482 459.901 149.778C459.588 150.075 459.432 150.51 459.432 151.086V154.882C459.381 156.473 458.391 157.412 456.461 157.7V157.853C458.441 158.149 459.432 159.046 459.432 160.544V160.658V164.454C459.432 165.03 459.588 165.465 459.901 165.762C460.215 166.058 460.794 166.219 461.641 166.244V169.113C459.576 169.113 458.133 168.847 457.312 168.313C456.491 167.789 456.08 166.875 456.08 165.571V161.572ZM474.214 149.448C472.733 149.448 471.586 150.007 470.774 151.124C469.961 152.233 469.555 153.782 469.555 155.771C469.555 159.909 471.108 161.979 474.214 161.979C475.518 161.979 477.096 161.653 478.949 161.001V164.302C477.426 164.937 475.725 165.254 473.846 165.254C471.146 165.254 469.081 164.437 467.651 162.804C466.22 161.162 465.505 158.809 465.505 155.745C465.505 153.815 465.856 152.127 466.559 150.68C467.261 149.224 468.268 148.111 469.58 147.341C470.901 146.562 472.445 146.173 474.214 146.173C476.017 146.173 477.828 146.609 479.648 147.48L478.378 150.68C477.684 150.35 476.986 150.062 476.283 149.816C475.581 149.571 474.891 149.448 474.214 149.448ZM495.166 159.846C495.166 161.521 494.561 162.842 493.351 163.807C492.149 164.771 490.473 165.254 488.324 165.254C486.343 165.254 484.591 164.882 483.068 164.137V160.48C484.32 161.039 485.378 161.433 486.242 161.661C487.113 161.89 487.909 162.004 488.628 162.004C489.492 162.004 490.152 161.839 490.609 161.509C491.074 161.179 491.307 160.688 491.307 160.036C491.307 159.672 491.206 159.351 491.002 159.071C490.799 158.784 490.499 158.508 490.101 158.246C489.712 157.984 488.912 157.565 487.702 156.989C486.568 156.456 485.717 155.944 485.15 155.453C484.583 154.962 484.13 154.391 483.791 153.739C483.453 153.088 483.284 152.326 483.284 151.454C483.284 149.812 483.838 148.521 484.947 147.582C486.064 146.643 487.604 146.173 489.568 146.173C490.533 146.173 491.451 146.287 492.323 146.516C493.203 146.744 494.121 147.066 495.078 147.48L493.808 150.54C492.818 150.134 491.997 149.85 491.345 149.689C490.702 149.529 490.067 149.448 489.441 149.448C488.696 149.448 488.125 149.622 487.727 149.969C487.329 150.316 487.13 150.769 487.13 151.327C487.13 151.674 487.211 151.979 487.372 152.241C487.532 152.495 487.786 152.745 488.133 152.99C488.489 153.227 489.322 153.659 490.634 154.285C492.369 155.115 493.558 155.948 494.202 156.786C494.845 157.616 495.166 158.635 495.166 159.846ZM510.787 159.846C510.787 161.521 510.182 162.842 508.971 163.807C507.77 164.771 506.094 165.254 503.944 165.254C501.964 165.254 500.212 164.882 498.688 164.137V160.48C499.941 161.039 500.999 161.433 501.862 161.661C502.734 161.89 503.529 162.004 504.249 162.004C505.112 162.004 505.772 161.839 506.229 161.509C506.695 161.179 506.927 160.688 506.927 160.036C506.927 159.672 506.826 159.351 506.623 159.071C506.42 158.784 506.119 158.508 505.721 158.246C505.332 157.984 504.532 157.565 503.322 156.989C502.188 156.456 501.337 155.944 500.77 155.453C500.203 154.962 499.75 154.391 499.412 153.739C499.073 153.088 498.904 152.326 498.904 151.454C498.904 149.812 499.458 148.521 500.567 147.582C501.684 146.643 503.225 146.173 505.188 146.173C506.153 146.173 507.071 146.287 507.943 146.516C508.823 146.744 509.742 147.066 510.698 147.48L509.428 150.54C508.438 150.134 507.617 149.85 506.965 149.689C506.322 149.529 505.687 149.448 505.061 149.448C504.316 149.448 503.745 149.622 503.347 149.969C502.95 150.316 502.751 150.769 502.751 151.327C502.751 151.674 502.831 151.979 502.992 152.241C503.153 152.495 503.407 152.745 503.754 152.99C504.109 153.227 504.943 153.659 506.255 154.285C507.99 155.115 509.179 155.948 509.822 156.786C510.465 157.616 510.787 158.635 510.787 159.846ZM519.717 165.571C519.717 166.519 519.543 167.234 519.196 167.717C518.849 168.199 518.274 168.55 517.47 168.771C516.674 168.999 515.57 169.113 514.156 169.113V166.244C514.994 166.227 515.57 166.075 515.883 165.787C516.204 165.499 516.365 165.055 516.365 164.454V160.658V160.519C516.365 159.791 516.615 159.202 517.114 158.754C517.613 158.297 518.35 157.996 519.323 157.853V157.7C517.402 157.412 516.416 156.473 516.365 154.882V151.086C516.365 150.493 516.209 150.053 515.895 149.766C515.582 149.478 515.002 149.321 514.156 149.296V146.439C515.57 146.439 516.678 146.554 517.482 146.782C518.286 147.002 518.858 147.358 519.196 147.849C519.543 148.331 519.717 149.038 519.717 149.969V154.006V154.133C519.717 154.844 519.975 155.377 520.491 155.732C521.016 156.088 521.841 156.266 522.967 156.266V159.3C521.909 159.3 521.1 159.473 520.542 159.82C519.992 160.167 519.717 160.751 519.717 161.572V165.571Z" fill="#4241B7"/>
<path d="M443.478 213.878C443.478 211.635 443.803 209.536 444.455 207.581C445.115 205.626 446.063 203.912 447.299 202.439H450.473C449.279 204.073 448.378 205.867 447.769 207.822C447.159 209.777 446.855 211.787 446.855 213.853C446.855 215.926 447.163 217.932 447.781 219.87C448.408 221.8 449.296 223.548 450.447 225.113H447.299C446.055 223.674 445.107 221.994 444.455 220.073C443.803 218.152 443.478 216.087 443.478 213.878ZM452.941 226.459C452.052 226.459 451.278 226.366 450.617 226.18V222.904C451.295 223.074 451.912 223.158 452.471 223.158C453.334 223.158 453.952 222.887 454.324 222.346C454.697 221.812 454.883 220.975 454.883 219.832V202.439H458.819V219.807C458.819 221.973 458.323 223.624 457.333 224.758C456.343 225.892 454.879 226.459 452.941 226.459ZM475.747 215.846C475.747 217.521 475.141 218.842 473.931 219.807C472.729 220.771 471.054 221.254 468.904 221.254C466.923 221.254 465.171 220.882 463.648 220.137V216.48C464.901 217.039 465.958 217.433 466.822 217.661C467.693 217.89 468.489 218.004 469.208 218.004C470.072 218.004 470.732 217.839 471.189 217.509C471.654 217.179 471.887 216.688 471.887 216.036C471.887 215.672 471.786 215.351 471.582 215.071C471.379 214.784 471.079 214.508 470.681 214.246C470.292 213.984 469.492 213.565 468.282 212.989C467.148 212.456 466.297 211.944 465.73 211.453C465.163 210.962 464.71 210.391 464.372 209.739C464.033 209.088 463.864 208.326 463.864 207.454C463.864 205.812 464.418 204.521 465.527 203.582C466.644 202.643 468.184 202.173 470.148 202.173C471.113 202.173 472.031 202.287 472.903 202.516C473.783 202.744 474.701 203.066 475.658 203.48L474.388 206.54C473.398 206.134 472.577 205.85 471.925 205.689C471.282 205.529 470.647 205.448 470.021 205.448C469.276 205.448 468.705 205.622 468.307 205.969C467.909 206.316 467.71 206.769 467.71 207.327C467.71 207.674 467.791 207.979 467.952 208.241C468.112 208.495 468.366 208.745 468.713 208.99C469.069 209.227 469.902 209.659 471.214 210.285C472.949 211.115 474.138 211.948 474.782 212.786C475.425 213.616 475.747 214.635 475.747 215.846ZM485.844 213.878C485.844 216.104 485.514 218.177 484.854 220.099C484.202 222.02 483.259 223.691 482.023 225.113H478.875C480.017 223.556 480.902 221.812 481.528 219.883C482.154 217.945 482.467 215.935 482.467 213.853C482.467 211.787 482.163 209.777 481.553 207.822C480.944 205.867 480.043 204.073 478.849 202.439H482.023C483.267 203.921 484.215 205.643 484.867 207.606C485.519 209.562 485.844 211.652 485.844 213.878ZM497.357 210.78V208H509.963V210.78H497.357ZM497.357 215.693V212.913H509.963V215.693H497.357ZM521.564 215.389L530.248 211.821L521.564 207.797V204.75L534.17 211.047V212.862L521.564 218.423V215.389Z" fill="#4241B7"/>
<path d="M234.284 123.852L262.436 151.997L234.281 180.142C232.939 181.484 232.939 183.654 234.281 184.996C235.622 186.335 237.796 186.335 239.138 184.996L269.719 154.425C271.061 153.087 271.061 150.913 269.719 149.575L239.139 119.004C237.797 117.665 235.619 117.665 234.277 119.004C232.942 120.339 232.942 122.513 234.284 123.852Z" fill="url(#paint6_linear)"/>
<defs>
<filter id="filter0_d" x="35" y="40" width="108" height="108" filterUnits="userSpaceOnUse" color-interpolation-filters="sRGB">
<feFlood flood-opacity="0" result="BackgroundImageFix"/>
<feColorMatrix in="SourceAlpha" type="matrix" values="0 0 0 0 0 0 0 0 0 0 0 0 0 0 0 0 0 0 127 0"/>
<feOffset dy="2"/>
<feGaussianBlur stdDeviation="2"/>
<feColorMatrix type="matrix" values="0 0 0 0 0 0 0 0 0 0 0 0 0 0 0 0 0 0 0.19 0"/>
<feBlend mode="normal" in2="BackgroundImageFix" result="effect1_dropShadow"/>
<feBlend mode="normal" in="SourceGraphic" in2="effect1_dropShadow" result="shape"/>
</filter>
<filter id="filter1_d" x="35" y="167" width="108" height="108" filterUnits="userSpaceOnUse" color-interpolation-filters="sRGB">
<feFlood flood-opacity="0" result="BackgroundImageFix"/>
<feColorMatrix in="SourceAlpha" type="matrix" values="0 0 0 0 0 0 0 0 0 0 0 0 0 0 0 0 0 0 127 0"/>
<feOffset dy="2"/>
<feGaussianBlur stdDeviation="2"/>
<feColorMatrix type="matrix" values="0 0 0 0 0 0 0 0 0 0 0 0 0 0 0 0 0 0 0.19 0"/>
<feBlend mode="normal" in2="BackgroundImageFix" result="effect1_dropShadow"/>
<feBlend mode="normal" in="SourceGraphic" in2="effect1_dropShadow" result="shape"/>
</filter>
<linearGradient id="paint0_linear" x1="39" y1="192" x2="105.021" y2="144.636" gradientUnits="userSpaceOnUse">
<stop stop-color="#934CC4"/>
<stop offset="1" stop-color="#5D78ED"/>
</linearGradient>
<linearGradient id="paint1_linear" x1="39" y1="319" x2="105.021" y2="271.636" gradientUnits="userSpaceOnUse">
<stop stop-color="#934CC4"/>
<stop offset="1" stop-color="#5D78ED"/>
</linearGradient>
<linearGradient id="paint2_linear" x1="274.274" y1="152" x2="311.726" y2="152" gradientUnits="userSpaceOnUse">
<stop stop-color="#6777C4"/>
<stop offset="1" stop-color="#934CC4"/>
</linearGradient>
<linearGradient id="paint3_linear" x1="485.937" y1="38" x2="485.937" y2="265" gradientUnits="userSpaceOnUse">
<stop stop-color="#6777C4"/>
<stop offset="1" stop-color="#934CC4"/>
</linearGradient>
<linearGradient id="paint4_linear" x1="485.937" y1="42.7386" x2="485.937" y2="49.0379" gradientUnits="userSpaceOnUse">
<stop stop-color="#6777C4"/>
<stop offset="1" stop-color="#934CC4"/>
</linearGradient>
<linearGradient id="paint5_linear" x1="485.075" y1="243.63" x2="485.075" y2="261.684" gradientUnits="userSpaceOnUse">
<stop stop-color="#6777C4"/>
<stop offset="1" stop-color="#934CC4"/>
</linearGradient>
<linearGradient id="paint6_linear" x1="233.274" y1="152" x2="270.726" y2="152" gradientUnits="userSpaceOnUse">
<stop stop-color="#6777C4"/>
<stop offset="1" stop-color="#934CC4"/>
</linearGradient>
</defs>
</svg>
