<svg xmlns="http://www.w3.org/2000/svg">
<symbol id="mail">
<path d="m434.146 59.882h-389.234c-24.766 0-44.912 20.146-44.912 44.912v269.47c0 24.766 20.146 44.912 44.912 44.912h389.234c24.766 0 44.912-20.146 44.912-44.912v-269.47c0-24.766-20.146-44.912-44.912-44.912zm0 29.941c2.034 0 3.969.422 5.738 1.159l-200.355 173.649-200.356-173.649c1.769-.736 3.704-1.159 5.738-1.159zm0 299.411h-389.234c-8.26 0-14.971-6.71-14.971-14.971v-251.648l199.778 173.141c2.822 2.441 6.316 3.655 9.81 3.655s6.988-1.213 9.81-3.655l199.778-173.141v251.649c-.001 8.26-6.711 14.97-14.971 14.97z"/>

</symbol>
<symbol id="telegram">
<path d="M152.531,179.476c-1.48,0-2.95-0.438-4.211-1.293l-47.641-32.316l-25.552,18.386c-2.004,1.441-4.587,1.804-6.914,0.972
		c-2.324-0.834-4.089-2.759-4.719-5.146l-12.83-48.622L4.821,93.928c-2.886-1.104-4.8-3.865-4.821-6.955
		c-0.021-3.09,1.855-5.877,4.727-7.02l174.312-69.36c0.791-0.336,1.628-0.53,2.472-0.582c0.302-0.018,0.605-0.018,0.906-0.001
		c1.748,0.104,3.465,0.816,4.805,2.13c0.139,0.136,0.271,0.275,0.396,0.42c1.11,1.268,1.72,2.814,1.835,4.389
		c0.028,0.396,0.026,0.797-0.009,1.198c-0.024,0.286-0.065,0.571-0.123,0.854L159.898,173.38c-0.473,2.48-2.161,4.556-4.493,5.523
		C154.48,179.287,153.503,179.476,152.531,179.476z M104.862,130.579l42.437,28.785L170.193,39.24l-82.687,79.566l17.156,11.638
		C104.731,130.487,104.797,130.533,104.862,130.579z M69.535,124.178l5.682,21.53l12.242-8.809l-16.03-10.874
		C70.684,125.521,70.046,124.893,69.535,124.178z M28.136,86.782l31.478,12.035c2.255,0.862,3.957,2.758,4.573,5.092l3.992,15.129
		c0.183-1.745,0.974-3.387,2.259-4.624L149.227,38.6L28.136,86.782z"/>
</symbol>
<symbol id="vk">
<path d="M19.6057 18.0294C19.3437 18.0294 18.8126 17.9496 18.1939 17.4111C17.7269 17.0017 17.2757 16.3466 16.8393 15.7117C16.1762 14.7474 15.5417 13.854 15.0314 14.0606C14.3358 14.3432 14.1703 15.9981 14.1802 16.8345C14.1792 16.9168 14.1644 17.2476 13.991 17.4858C13.8609 17.6531 13.6866 17.719 13.3575 17.7317L11.8964 17.7355C11.8974 17.7367 11.8265 17.7418 11.7092 17.7418C10.9693 17.7418 8.37526 17.5036 6.06689 14.4458C3.09252 10.5086 0.461995 2.72931 0.435394 2.65074L0.503374 1.84607C0.5083 1.84227 0.513226 1.8372 0.517167 1.8334L0.669876 1.73582C0.861993 1.64965 1.08564 1.64332 1.14081 1.64332L4.44129 1.61671C4.53193 1.62811 4.83734 1.70161 5.05114 1.89422C5.2403 2.0767 5.34572 2.3859 5.35064 2.39983C5.36148 2.43405 5.90039 4.17011 6.62354 5.74777C7.92009 8.60023 8.60875 9.56837 9.16835 9.18694C9.51614 8.94617 9.80481 7.50537 9.65998 4.83665C9.66392 4.29049 9.59692 3.21211 9.30727 2.72043C9.12599 2.4049 8.85801 2.22116 8.6659 2.12232L8.02353 1.79285L8.54471 1.20994C8.62057 1.12503 8.70038 1.05534 8.78117 1.00338C9.2255 0.728401 9.90825 0.364716 10.7447 0.364716H11.9004C12.4895 0.364716 12.8077 0.538321 13.0629 0.677713C13.1792 0.739806 13.2807 0.795562 13.389 0.829776C14.2915 1.10349 14.259 2.18314 14.1999 4.14223C14.1821 4.72514 14.1614 5.38915 14.1614 6.13807C14.1614 6.3066 14.1575 6.48654 14.1536 6.67029C14.1329 7.61688 14.1072 8.7751 14.6136 9.19201C14.8974 9.41884 15.524 9.1768 17.0865 5.79846C17.8314 4.18151 18.3772 2.34154 18.3821 2.3238C18.3969 2.27945 18.5171 1.94364 18.6984 1.79792C18.8186 1.70288 18.9624 1.68387 19.0629 1.68387L19.1949 1.69274L22.7594 1.65726C22.7575 1.65599 22.8678 1.64205 23.0156 1.64205C23.52 1.64205 23.7437 1.79792 23.8008 1.8448L23.9161 1.94111L23.9663 2.10711C24.1574 2.75845 23.5348 4.30823 22.1121 6.71464C21.8067 7.22912 21.5387 7.67391 21.3043 8.0604C19.7121 10.6835 19.7121 10.6835 21.4382 12.7199C22.9417 14.4914 23.5525 15.5939 23.7998 16.2059C24.0037 16.6292 24.054 17.0132 23.9368 17.3135C23.7111 17.8761 22.9801 17.9509 22.9496 17.9547L19.7072 18.0231C19.7121 18.0244 19.6688 18.0294 19.6057 18.0294ZM15.1939 12.9429C16.0629 12.9429 16.7161 13.892 17.4727 14.9907C17.8747 15.5762 18.2905 16.1793 18.6698 16.5101C19.1299 16.9105 19.5033 16.9435 19.6067 16.9435V17.4858L19.6412 16.9409L22.9121 16.87C22.9663 16.8636 23.0373 16.8421 23.0993 16.8155C23.0905 16.7914 23.0786 16.7673 23.0658 16.7382C22.8747 16.268 22.3545 15.272 20.8688 13.5182C18.8038 11.0839 18.7801 10.4529 20.6392 7.39132C20.8737 7.00736 21.1397 6.56765 21.4412 6.05697C22.5604 4.16251 22.9506 3.18296 23.0865 2.72804C22.9762 2.72424 22.8402 2.73564 22.8195 2.73818L19.1732 2.77619L19.1328 2.77366C19.053 3.09679 18.5181 4.81765 17.8126 6.35222C16.1939 9.84715 15.3959 10.33 14.7733 10.3312C14.5516 10.3312 14.3467 10.2552 14.1634 10.1082C13.2511 9.35548 13.2846 7.79429 13.3092 6.65382C13.3141 6.465 13.3181 6.2952 13.3181 6.13553C13.3181 5.37014 13.3388 4.69219 13.3565 4.09661C13.4166 2.14639 13.3555 1.93224 13.1949 1.88408C13.0422 1.83593 12.8954 1.7637 12.7358 1.67626C12.5112 1.55335 12.3191 1.44817 11.9004 1.44817H10.7447C10.3585 1.44817 10.0058 1.55081 9.70727 1.68133C9.80579 1.79285 9.89939 1.9221 9.98313 2.0691C10.4954 2.93839 10.5063 4.50085 10.5033 4.80498C10.6659 7.78796 10.3506 9.59751 9.56737 10.1411C9.36737 10.278 9.15653 10.3477 8.9388 10.3477C8.04028 10.3477 7.27181 9.3238 5.89645 6.29393C5.12798 4.61996 4.57626 2.82688 4.57035 2.80914C4.53488 2.75592 4.42552 2.70776 4.36838 2.69382L1.38711 2.7255C2.02061 4.50338 4.25015 10.4846 6.67182 13.6918C8.75062 16.4429 11.0531 16.6571 11.7092 16.6571C11.7979 16.6571 11.8531 16.652 11.8669 16.6507L13.3368 16.6482C13.3467 15.8714 13.4875 13.5474 14.7772 13.0266C14.9102 12.9708 15.0511 12.9429 15.1939 12.9429Z"/>
</symbol>
<symbol id="f">
<path d="M157.326,0C70.576,0,0,70.576,0,157.326s70.576,157.326,157.326,157.326s157.326-70.576,157.326-157.326
		S244.076,0,157.326,0z M157.326,296.652C80.501,296.652,18,234.15,18,157.326S80.501,18,157.326,18s139.326,62.502,139.326,139.326
		S234.151,296.652,157.326,296.652z"/>
	<path d="M193.764,71.952H172.43c-17.461,0-31.667,14.206-31.667,31.667v24h-19.875c-4.971,0-9,4.029-9,9s4.029,9,9,9h19.875v83.333
		c0,4.971,4.029,9,9,9s9-4.029,9-9v-83.333h30.75c4.971,0,9-4.029,9-9s-4.029-9-9-9h-30.75v-24c0-7.536,6.131-13.667,13.667-13.667
		h21.333c4.971,0,9-4.029,9-9S198.734,71.952,193.764,71.952z"/>
</symbol>

<symbol id="arrow">
<path d="M220.088,57.667l-99.671,99.695L20.746,57.655c-4.752-4.752-12.439-4.752-17.191,0
		c-4.74,4.752-4.74,12.451,0,17.203l108.261,108.297l0,0l0,0c4.74,4.752,12.439,4.752,17.179,0L237.256,74.859
		c4.74-4.752,4.74-12.463,0-17.215C232.528,52.915,224.828,52.915,220.088,57.667z"/>
</symbol>
<symbol id="stage1">

<path d="M12.0423 32.8421C11.9571 32.8421 11.8711 32.8306 11.7852 32.8068C11.2744 32.6652 10.9754 32.1364 11.117 31.6256C14.7175 18.6549 26.644 9.59619 40.1202 9.59619C40.3201 9.59619 40.5201 9.59811 40.7192 9.60195C41.2492 9.61231 41.6702 10.0502 41.6598 10.5802C41.6498 11.1097 41.2108 11.5342 40.682 11.5208C40.4951 11.5169 40.3078 11.515 40.1202 11.515C27.5029 11.515 16.3366 19.9961 12.966 32.1391C12.8482 32.5635 12.4625 32.8421 12.0423 32.8421V32.8421Z" fill="#D954B8"/>
<path d="M40.1202 69.7892C39.7157 69.7892 39.3127 69.7811 38.9121 69.765C38.3829 69.7439 37.9703 69.2976 37.9914 68.7684C38.0122 68.2384 38.4642 67.8278 38.9881 67.8477C39.3634 67.8627 39.741 67.8704 40.1202 67.8704C53.2229 67.8704 64.7918 58.601 67.6281 45.8294C67.7429 45.3121 68.256 44.9863 68.7725 45.1011C69.2898 45.2158 69.616 45.7285 69.5009 46.2454C68.0403 52.8227 64.3385 58.7971 59.078 63.0688C53.741 67.403 47.0083 69.7892 40.1202 69.7892Z" fill="#D954B8"/>
<path d="M22.4042 33.0697C10.1166 33.0697 0.119965 43.0667 0.119965 55.3539C0.119965 59.6486 1.33841 63.7998 3.64788 67.3906L0.63267 75.8418C0.507947 76.1907 0.595828 76.5806 0.857937 76.8423C1.12005 77.1048 1.50918 77.1919 1.8584 77.0675L10.2912 74.0589C13.9008 76.4017 18.0781 77.6374 22.4038 77.6374C34.6915 77.6374 44.6877 67.6408 44.6877 55.3536C44.6877 43.0663 34.6918 33.0697 22.4042 33.0697V33.0697ZM22.4042 75.7194C18.3003 75.7194 14.3433 74.5029 10.9616 72.2015C10.8004 72.0917 10.6116 72.0349 10.4216 72.0349C10.313 72.0349 10.2041 72.0533 10.0993 72.0909L3.11982 74.5808L5.61581 67.5852C5.71827 67.2981 5.67836 66.9792 5.50759 66.7267C3.23802 63.3615 2.03839 59.4291 2.03839 55.3543C2.03839 44.1247 11.1742 34.9889 22.4038 34.9889C33.6331 34.9889 42.7689 44.1251 42.7689 55.3543C42.7689 66.5836 33.6338 75.7194 22.4042 75.7194V75.7194Z" fill="#5D78ED"/>
<path d="M76.592 35.2879C78.9019 31.697 80.12 27.5459 80.12 23.2508C80.12 10.9632 70.1234 0.96698 57.8357 0.96698C45.5481 0.96698 35.5519 10.9636 35.5519 23.2508C35.5519 35.5381 45.5485 45.5351 57.8357 45.5351C62.1619 45.5351 66.3391 44.2994 69.9484 41.9565L78.3811 44.9652C78.73 45.0891 79.1199 45.0024 79.3816 44.7399C79.6437 44.4778 79.7316 44.0883 79.6069 43.7395L76.592 35.2879ZM70.141 39.9878C69.852 39.8842 69.532 39.9256 69.2787 40.0983C65.897 42.3997 61.94 43.6163 57.8361 43.6163C46.6069 43.6163 37.4711 34.4801 37.4711 23.2508C37.4711 12.0216 46.6069 2.88578 57.8361 2.88578C69.0657 2.88578 78.2015 12.0216 78.2015 23.2508C78.2015 27.326 77.0019 31.2584 74.7323 34.6236C74.5619 34.8761 74.5217 35.195 74.6241 35.4821L77.1201 42.4776L70.141 39.9878Z" fill="#5D78ED"/>
<path d="M22.1617 70.9101C21.1946 70.9101 20.2878 70.5344 19.6074 69.8525C18.9293 69.1759 18.5547 68.2698 18.5547 67.3024C18.5547 66.3518 18.9193 65.4534 19.5816 64.7719C20.2601 64.0692 21.1773 63.6812 22.1617 63.6812C23.1288 63.6812 24.0386 64.0592 24.7233 64.7454C25.4064 65.4285 25.7832 66.3368 25.7832 67.302C25.7832 68.284 25.3952 69.2012 24.6903 69.8847C24.0083 70.5463 23.1103 70.9101 22.1617 70.9101V70.9101ZM22.1617 65.6004C21.7023 65.6004 21.2756 65.7804 20.9597 66.1074C20.6454 66.4305 20.4735 66.8542 20.4735 67.3024C20.4735 67.7564 20.6477 68.1797 20.9643 68.4951C21.2836 68.8156 21.7081 68.9909 22.1617 68.9909C22.6091 68.9909 23.0328 68.8194 23.3544 68.5074C23.6829 68.1885 23.8644 67.7606 23.8644 67.302C23.8644 66.8492 23.6875 66.4228 23.3659 66.1012C23.0428 65.7785 22.6157 65.6004 22.1617 65.6004V65.6004Z" fill="#D954B8"/>
<path d="M22.4856 62.3051H21.7257C20.9701 62.3051 20.2333 61.9962 19.7045 61.4578C19.1752 60.919 18.8797 60.1768 18.8932 59.4215C18.9185 57.9675 19.1603 56.7559 19.6315 55.7179C20.0967 54.6944 20.8722 53.6847 22.0024 52.6297C22.9196 51.7739 23.2692 51.3453 23.3958 51.1665C23.5547 50.942 23.6683 50.7175 23.7339 50.4991C23.7854 50.3283 23.8464 50.0098 23.8464 49.4591C23.8464 48.8462 23.7366 48.4168 23.5198 48.1835C23.4546 48.1132 23.2773 47.9229 22.6126 47.9229C21.7913 47.9229 21.5553 48.1685 21.4663 48.261C21.2752 48.4594 21.0787 48.7545 21.0687 49.438C21.0461 50.9773 19.7754 52.2291 18.2362 52.2291H17.4763C16.7242 52.2291 15.9893 51.9221 15.4608 51.3871C14.9324 50.8522 14.6342 50.1138 14.6434 49.3616C14.6718 47.0614 15.4616 45.1498 16.9913 43.68C18.4979 42.2313 20.3895 41.4968 22.613 41.4968C24.8929 41.4968 26.7714 42.2663 28.1963 43.784C29.5744 45.25 30.2732 47.1669 30.2732 49.4806C30.2732 51.0011 29.9585 52.3976 29.338 53.6314C28.7528 54.7953 27.7419 56.0203 26.2483 57.3765C26.1962 57.4237 26.1424 57.469 26.0872 57.5123C25.8385 57.7065 25.3196 58.1118 25.3196 59.4726C25.3189 61.0345 24.0479 62.3051 22.4856 62.3051ZM22.6122 46.0041C23.6211 46.0041 24.3775 46.2896 24.9248 46.8764C25.4908 47.4866 25.7648 48.3308 25.7648 49.4587C25.7648 50.0881 25.6996 50.6238 25.571 51.0509C25.4459 51.4673 25.241 51.8791 24.9624 52.274C24.6619 52.6988 24.1062 53.2906 23.311 54.0328C22.3689 54.912 21.7369 55.7225 21.378 56.5115C21.0177 57.3051 20.8323 58.2683 20.8112 59.4557C20.807 59.6998 20.9022 59.9392 21.0733 60.1131C21.2437 60.2865 21.4817 60.3863 21.7257 60.3863H22.4856C22.9898 60.3863 23.4001 59.9765 23.4001 59.4722C23.4001 57.9264 23.8928 56.7901 24.906 55.9988C24.9244 55.9846 24.9416 55.97 24.9581 55.955C26.2741 54.7608 27.1456 53.7185 27.623 52.769C28.1077 51.8046 28.3533 50.6983 28.3533 49.4802C28.3533 47.6708 27.8294 46.196 26.7967 45.0973C26.7967 45.0973 26.7967 45.0973 26.7964 45.0969C25.7491 43.9813 24.3411 43.4152 22.6122 43.4152C20.9014 43.4152 19.4573 43.9698 18.3198 45.0631C17.1743 46.1637 16.5829 47.6174 16.5611 49.3847C16.558 49.6276 16.6543 49.8659 16.8251 50.0386C16.9959 50.2113 17.2326 50.3103 17.4756 50.3103H18.2354C18.732 50.3103 19.1422 49.9062 19.1495 49.4096C19.1649 48.378 19.47 47.5675 20.0828 46.9301C20.683 46.3073 21.51 46.0041 22.6122 46.0041Z" fill="#D954B8"/>
<path d="M66.4711 31.8939H59.5078C58.9778 31.8939 58.5484 31.4645 58.5484 30.9345C58.5484 30.4045 58.9778 29.9751 59.5078 29.9751H66.4711C67.0011 29.9751 67.4305 30.4045 67.4305 30.9345C67.4305 31.4645 67.0007 31.8939 66.4711 31.8939Z" fill="#D954B8"/>
<path d="M54.9709 31.8939H46.4146C45.8846 31.8939 45.4552 31.4645 45.4552 30.9345C45.4552 30.4045 45.8846 29.9751 46.4146 29.9751H54.9709C55.5009 29.9751 55.9303 30.4045 55.9303 30.9345C55.9303 31.4645 55.5009 31.8939 54.9709 31.8939Z" fill="#D954B8"/>
<path d="M69.2572 24.4835H65.8962C65.3663 24.4835 64.9368 24.0541 64.9368 23.5241C64.9368 22.9941 65.3663 22.5647 65.8962 22.5647H69.2572C69.7872 22.5647 70.2166 22.9941 70.2166 23.5241C70.2166 24.0541 69.7872 24.4835 69.2572 24.4835Z" fill="#D954B8"/>
<path d="M61.3598 24.4835H46.415C45.885 24.4835 45.4556 24.0541 45.4556 23.5241C45.4556 22.9941 45.885 22.5647 46.415 22.5647H61.3598C61.8898 22.5647 62.3192 22.9941 62.3192 23.5241C62.3192 24.0541 61.8898 24.4835 61.3598 24.4835Z" fill="#D954B8"/>
<path d="M65.7853 17.0727H46.4146C45.8846 17.0727 45.4552 16.6432 45.4552 16.1133C45.4552 15.5833 45.8846 15.1539 46.4146 15.1539H65.7853C66.3153 15.1539 66.7447 15.5833 66.7447 16.1133C66.7447 16.6432 66.3153 17.0727 65.7853 17.0727Z" fill="#D954B8"/>
</symbol>


<symbol id="stage2">
<path d="M35.4085 22.2416C29.2765 22.2416 24.2879 17.2525 24.2879 11.1206C24.2879 4.98868 29.2765 0 35.4085 0C41.5404 0 46.5291 4.98868 46.5291 11.1206C46.5291 17.2529 41.5404 22.2416 35.4085 22.2416ZM35.4085 1.83624C30.289 1.83624 26.1241 6.00118 26.1241 11.1206C26.1241 16.24 30.289 20.4053 35.4085 20.4053C40.5279 20.4053 44.6928 16.2404 44.6928 11.1206C44.6928 6.00118 40.5279 1.83624 35.4085 1.83624V1.83624Z" fill="#D954B8"/>
<path d="M33.9046 16.6847C33.2806 16.6847 32.6938 16.4416 32.2527 16.0006L28.574 12.3218C28.1326 11.8808 27.8898 11.2943 27.8898 10.6703C27.8898 10.0464 28.1329 9.45989 28.574 9.01845C29.4848 8.10842 30.9662 8.10842 31.877 9.01845L33.9046 11.046L39.0853 5.86527C39.526 5.42421 40.1125 5.18109 40.7369 5.18109C41.3608 5.18109 41.9473 5.42421 42.3887 5.86527C42.8298 6.30597 43.0725 6.89246 43.0725 7.51678C43.0725 8.14073 42.8294 8.72723 42.3884 9.16829L35.5561 16.0006C35.1154 16.442 34.5285 16.6847 33.9046 16.6847V16.6847ZM30.2259 10.1712C30.0981 10.1712 29.9699 10.2197 29.8726 10.3174C29.7786 10.4114 29.7264 10.537 29.7264 10.6703C29.7264 10.8036 29.7786 10.9292 29.8726 11.0233L33.5517 14.7023C33.7404 14.8911 34.0695 14.8907 34.2575 14.7023L41.0901 7.87007C41.1845 7.77569 41.2363 7.65009 41.2363 7.51678C41.2363 7.38347 41.1842 7.25787 41.0901 7.16386C40.9014 6.97473 40.5723 6.97509 40.3843 7.16349L34.5539 12.9935C34.3816 13.1658 34.1484 13.2624 33.9046 13.2624C33.6611 13.2624 33.4275 13.1658 33.2553 12.9935L30.5788 10.317C30.4818 10.2201 30.354 10.1712 30.2259 10.1712V10.1712Z" fill="#D954B8"/>
<path d="M67.5735 42.2951C67.5735 30.8723 59.9035 19.6948 51.5836 13.8709C51.5836 13.8709 49.7532 12.5397 50.7516 12.2069C51.75 11.8741 52.8316 12.7616 53.2476 13.0389C62.663 19.4716 69.4097 30.7735 69.4097 42.2951C69.4097 61.4313 53.841 77 34.7048 77C15.5687 77 0 61.4313 0 42.2951C0 29.8429 6.73127 18.2772 17.5676 12.1118C18.0083 11.8607 18.5687 12.0149 18.8196 12.456C19.07 12.8967 18.9162 13.4571 18.4755 13.7079C8.21201 19.5475 1.83624 30.5014 1.83624 42.2951C1.83624 60.4192 16.5808 75.1638 34.7048 75.1638C52.8289 75.1638 67.5735 60.4192 67.5735 42.2951Z" fill="#5D78ED"/>
<g clip-path="url(#clip0)">
<path d="M37.8557 49.2306C42.4503 49.2306 46.1756 45.5057 46.1756 40.9107C46.1756 36.3156 42.4503 32.5908 37.8557 32.5908C37.8549 32.5908 37.8549 32.5908 37.8541 32.5908H28.9808C28.6745 32.5908 28.4267 32.839 28.4267 33.1453V48.1207H26.7627C26.4564 48.1207 26.2078 48.3694 26.2078 48.6765C26.2078 48.982 26.4564 49.2306 26.7627 49.2306H28.4267V51.4487H26.7627C26.4564 51.4487 26.2078 51.6973 26.2078 52.0045C26.2078 52.31 26.4564 52.5586 26.7627 52.5586H28.4267V58.6604C28.4267 58.9659 28.6745 59.2145 28.9808 59.2145C29.2871 59.2145 29.5358 58.9659 29.5358 58.6604V52.5586H38.9647C39.2711 52.5586 39.5197 52.31 39.5197 52.0045C39.5197 51.6974 39.2711 51.4487 38.9647 51.4487H29.5358V49.2306H37.8557ZM29.5358 33.7002H37.8541H37.8557C38.8299 33.7002 39.774 33.8907 40.6621 34.2661C41.5209 34.6293 42.2919 35.1493 42.9541 35.8119C43.6171 36.4745 44.1371 37.246 44.5003 38.1044C44.8756 38.9924 45.0666 39.9369 45.0666 40.9107C45.0666 41.8845 44.8756 42.829 44.5003 43.7171C44.1371 44.5755 43.6171 45.3469 42.9541 46.0095C42.2919 46.6721 41.5209 47.1921 40.6621 47.5553C39.774 47.9306 38.8299 48.1207 37.8557 48.1207H29.5358V33.7002Z" fill="#5D78ED"/>
</g>
<defs>
<clipPath id="clip0">
<rect x="22.8798" y="32.5908" width="26.6238" height="26.6238" fill="white"/>
</clipPath>
</defs>

</symbol>


<symbol id="stage3">
<path d="M38.6432 60.5896C26.6471 60.5896 16.8877 50.8298 16.8877 38.8341C16.8877 26.8384 26.6475 17.0787 38.6432 17.0787C50.1874 17.0787 59.7383 26.2202 60.3619 37.6443H64.6268C64.9857 37.6443 65.3151 37.8455 65.4785 38.1654C65.6422 38.4852 65.6127 38.8697 65.4023 39.1609L57.9175 49.5225C57.7377 49.7712 57.4492 49.9189 57.1423 49.9189C56.8355 49.9189 56.5466 49.7712 56.3672 49.5225L48.8824 39.1609C48.6719 38.8697 48.6425 38.4852 48.8062 38.1654C48.9696 37.8455 49.2986 37.6443 49.6579 37.6443H54.6072C55.1356 37.6443 55.5637 38.0724 55.5637 38.6008C55.5637 39.1291 55.1356 39.5573 54.6072 39.5573H51.5288L57.1427 47.329L62.7566 39.5573H59.4368C58.9126 39.5573 58.4864 39.1352 58.4803 38.6111C58.3605 27.793 49.462 18.9917 38.6436 18.9917C27.7023 18.9917 18.8011 27.8933 18.8011 38.8341C18.8011 49.775 27.7027 58.6766 38.6436 58.6766C43.8959 58.6766 48.9497 56.5761 52.6567 52.8825L50.4973 50.9155C47.3447 54.005 43.0764 55.7597 38.6436 55.7597C29.3104 55.7597 21.7177 48.1665 21.7177 38.8338C21.7177 29.501 29.3108 21.9079 38.6436 21.9079C46.1934 21.9079 52.8939 26.9865 54.9374 34.259C55.0801 34.7675 54.784 35.2955 54.2751 35.4386C53.767 35.5809 53.2387 35.2847 53.0956 34.7763C51.2836 28.326 45.3402 23.8209 38.644 23.8209C30.3656 23.8209 23.6311 30.5558 23.6311 38.8338C23.6311 47.1117 30.366 53.8466 38.644 53.8466C42.8598 53.8466 46.907 52.0576 49.7474 48.9383C49.9181 48.7508 50.1564 48.6387 50.4101 48.6272C50.6576 48.6146 50.9109 48.7045 51.0988 48.8751L54.6692 52.128C55.0598 52.4838 55.0882 53.0887 54.7323 53.479C50.6159 57.9982 44.7518 60.5896 38.6432 60.5896V60.5896Z" fill="#D954B8"/>
<path d="M74.0062 30.583C74.0059 30.583 74.0055 30.5826 74.0051 30.5826L64.6034 28.16L69.5386 19.7982C70.5659 18.0536 70.2831 15.836 68.8518 14.4043L63.2639 8.81605C61.8323 7.38589 59.6143 7.10353 57.8693 8.13005L49.5079 13.0648L47.0849 3.66203C46.5776 1.70273 44.8092 0.334167 42.7852 0.334167H34.883C32.859 0.334167 31.0906 1.70273 30.5829 3.66318L28.1603 13.0648L19.7982 8.12928C18.0524 7.10238 15.8356 7.38551 14.4042 8.81605L8.81636 14.4039C7.38505 15.8353 7.10269 18.0532 8.12997 19.7986L13.0648 28.16L3.66196 30.583C1.70227 31.0903 0.33371 32.8587 0.33371 34.8827V42.7849C0.33371 44.8092 1.70227 46.5772 3.66311 47.0853L13.0648 49.5076L8.12959 57.8693C7.10231 59.6144 7.38505 61.8319 8.81636 63.2636L14.4042 68.8515C15.8348 70.2824 18.0531 70.5648 19.7989 69.5379L28.1603 64.6031L30.5833 74.0059C31.091 75.9656 32.859 77.3342 34.883 77.3342H42.7852C44.8092 77.3342 46.5772 75.9656 47.0853 74.0048L49.5079 64.6031L57.8697 69.5383C59.6151 70.5652 61.8315 70.2828 63.2636 68.8515L68.8515 63.2636C70.2828 61.8323 70.5651 59.6144 69.5378 57.8686L64.6031 49.5072L74.0059 47.0846C75.9655 46.5769 77.3341 44.8089 77.3341 42.7845V34.8823C77.3345 32.8587 75.9659 31.0903 74.0062 30.583V30.583ZM75.4215 42.7849C75.4215 43.9377 74.6421 44.9443 73.5276 45.2328L62.8944 47.9722C62.6032 48.0472 62.3645 48.2546 62.2493 48.5323C62.1341 48.8105 62.1563 49.1258 62.309 49.3848L67.89 58.8404C68.4746 59.8336 68.3139 61.0962 67.4993 61.9111L61.9115 67.499C61.0961 68.3136 59.8339 68.4739 58.8418 67.89L49.3855 62.3087C49.1268 62.1564 48.8112 62.1338 48.533 62.249C48.2553 62.3641 48.0479 62.6029 47.9729 62.894L45.2335 73.5261C44.9442 74.6418 43.9376 75.4212 42.7856 75.4212H34.8834C33.731 75.4212 32.7243 74.6418 32.4359 73.5273L29.6961 62.894C29.6211 62.6029 29.4137 62.3641 29.1359 62.249C29.0181 62.2 28.8937 62.1763 28.7698 62.1763C28.601 62.1763 28.4327 62.221 28.2835 62.309L18.8279 67.89C17.835 68.4747 16.5721 68.3136 15.7575 67.4994L10.1696 61.9115C9.35468 61.0966 9.19399 59.8336 9.7786 58.8415L15.36 49.3852C15.5126 49.1261 15.5348 48.8109 15.4197 48.5327C15.3045 48.255 15.0658 48.0476 14.7746 47.9726L4.1425 45.2336C3.02684 44.9443 2.24748 43.9377 2.24748 42.7853V34.883C2.24748 33.7306 3.02684 32.724 4.14136 32.4355L14.7746 29.6957C15.0658 29.6207 15.3045 29.4134 15.4197 29.1356C15.5348 28.8575 15.5126 28.5422 15.36 28.2832L9.77822 18.8272C9.1936 17.834 9.3543 16.5714 10.1689 15.7568L15.7567 10.1689C16.5713 9.35437 17.8331 9.19215 18.8264 9.77791L28.2827 15.3593C28.5414 15.5112 28.857 15.5334 29.1352 15.419C29.4129 15.3038 29.6203 15.0651 29.6953 14.7739L32.4347 4.14181C32.724 3.02615 33.7306 2.24717 34.8826 2.24717H42.7848C43.9372 2.24717 44.9439 3.02615 45.2323 4.14067L47.9721 14.7739C48.0471 15.0651 48.2545 15.3038 48.5323 15.419C48.8108 15.5341 49.1261 15.5116 49.3847 15.3593L58.8403 9.77829C59.8324 9.19444 61.0957 9.35475 61.9107 10.1689L67.4986 15.7568C68.3135 16.5718 68.4742 17.8343 67.8896 18.8264L62.3082 28.2828C62.1556 28.5418 62.1334 28.8571 62.2485 29.1352C62.3637 29.413 62.6024 29.6204 62.8936 29.6954L73.5257 32.4348C74.6414 32.724 75.4207 33.7306 75.4207 34.8827V42.7849H75.4215Z" fill="#5D78ED"/>
<path d="M45.3888 31.4806C44.5559 31.4806 43.7731 31.805 43.1846 32.3939L36.9169 38.6616L34.1021 35.8465C33.5133 35.2576 32.7305 34.9332 31.8975 34.9332C31.0646 34.9332 30.2818 35.2576 29.6934 35.8465C28.4775 37.062 28.4775 39.04 29.6934 40.2552L34.7127 45.2745C35.3015 45.8633 36.0843 46.1878 36.9169 46.1878C37.7494 46.1878 38.5322 45.8633 39.121 45.2745L47.593 36.8026C48.1818 36.2138 48.5062 35.4309 48.5062 34.598C48.5062 33.7651 48.1818 32.9823 47.5934 32.3935C47.0041 31.805 46.2217 31.4806 45.3888 31.4806ZM46.2401 35.4497L37.7682 43.922C37.3197 44.3704 36.5136 44.3704 36.0652 43.922L31.0459 38.9027C30.576 38.4328 30.576 37.6684 31.0462 37.1989C31.2735 36.9713 31.5758 36.8462 31.8975 36.8462C32.2193 36.8462 32.5216 36.9713 32.7492 37.1989L36.2408 40.6906C36.6146 41.0644 37.2199 41.0644 37.5933 40.6906L44.5375 33.7467C44.992 33.2918 45.7852 33.2918 46.2401 33.7467C46.4677 33.9744 46.5929 34.277 46.5929 34.5988C46.5929 34.9206 46.4677 35.2224 46.2401 35.4497V35.4497Z" fill="#5D78ED"/>


</symbol>

<symbol id="stage4">
<path d="M36.0936 72.0074C28.9905 72.0074 22.0469 69.9011 16.1409 65.9548C10.2349 62.0086 5.63172 56.3996 2.91348 49.8372C0.195249 43.2748 -0.515966 36.0537 0.869778 29.0871C2.25552 22.1205 5.67599 15.7213 10.6986 10.6986C15.7213 5.67599 22.1205 2.25552 29.0871 0.869778C36.0537 -0.515966 43.2748 0.195249 49.8372 2.91348C56.3996 5.63172 62.0086 10.2349 65.9548 16.1409C69.9011 22.0469 72.0074 28.9905 72.0074 36.0936C72.0074 36.3442 71.9078 36.5846 71.7306 36.7618C71.5534 36.9391 71.313 37.0387 71.0623 37.0387C70.8117 37.0387 70.5713 36.9391 70.394 36.7618C70.2168 36.5846 70.1172 36.3442 70.1172 36.0936C70.1172 29.3643 68.1218 22.7862 64.3832 17.191C60.6446 11.5959 55.3309 7.23497 49.1138 4.6598C42.8968 2.08463 36.0558 1.41085 29.4559 2.72366C22.8559 4.03647 16.7935 7.27691 12.0352 12.0352C7.27691 16.7935 4.03647 22.8559 2.72366 29.4559C1.41085 36.0558 2.08463 42.8968 4.6598 49.1138C7.23497 55.3309 11.5959 60.6446 17.191 64.3832C22.7862 68.1218 29.3643 70.1172 36.0936 70.1172C36.3442 70.1172 36.5846 70.2168 36.7618 70.394C36.9391 70.5713 37.0387 70.8117 37.0387 71.0623C37.0387 71.313 36.9391 71.5534 36.7618 71.7306C36.5846 71.9078 36.3442 72.0074 36.0936 72.0074Z" fill="#5D78ED"/>
<path d="M42.6896 20.2359C41.9954 19.9485 41.2156 19.9481 40.5212 20.2348C39.8267 20.5214 39.2742 21.0717 38.9848 21.765L27.9679 48.2438C27.8249 48.5875 27.751 48.9561 27.7505 49.3285C27.7499 49.7008 27.8227 50.0696 27.9647 50.4138C28.1067 50.7581 28.3151 51.0709 28.578 51.3346C28.8409 51.5983 29.1531 51.8076 29.4969 51.9506C30.1912 52.2394 30.9718 52.2406 31.667 51.9539C32.3622 51.6671 32.915 51.116 33.2038 50.4216L44.2191 23.9429C44.507 23.2484 44.5076 22.4681 44.2208 21.7732C43.9341 21.0782 43.3834 20.5253 42.6896 20.2359V20.2359ZM42.4737 23.2167L31.4588 49.6954C31.3597 49.9245 31.1751 50.106 30.9444 50.2012C30.7136 50.2964 30.4548 50.2979 30.2229 50.2054C29.9916 50.1091 29.8079 49.9249 29.7123 49.6932C29.6168 49.4615 29.6171 49.2014 29.7133 48.97L40.7283 22.4912C40.8004 22.3188 40.9219 22.1715 41.0775 22.0679C41.2331 21.9643 41.4158 21.9091 41.6027 21.9091C41.7267 21.9089 41.8494 21.9335 41.9638 21.9813C42.1952 22.0775 42.379 22.2617 42.4746 22.4934C42.5702 22.7251 42.5699 22.9853 42.4737 23.2167V23.2167Z" fill="#D954B8"/>
<path d="M45.0365 44.7292C45.037 45.2896 45.2035 45.8372 45.5151 46.3031C45.8267 46.7689 46.2693 47.1319 46.7871 47.3463C47.3049 47.5607 47.8746 47.6168 48.4242 47.5076C48.9739 47.3984 49.4789 47.1288 49.8754 46.7328L58.5114 38.0972C58.7747 37.8339 58.9835 37.5213 59.126 37.1773C59.2685 36.8333 59.3419 36.4646 59.3419 36.0922C59.3419 35.7199 59.2685 35.3512 59.126 35.0072C58.9835 34.6632 58.7747 34.3506 58.5114 34.0873L49.8769 25.4529C49.6147 25.185 49.3019 24.9718 48.9567 24.8255C48.6115 24.6793 48.2408 24.603 47.8659 24.601C47.491 24.599 47.1195 24.6714 46.7728 24.8139C46.426 24.9564 46.111 25.1663 45.8459 25.4314C45.5809 25.6965 45.371 26.0115 45.2285 26.3582C45.0859 26.7049 45.0135 27.0765 45.0155 27.4514C45.0175 27.8262 45.0939 28.197 45.2401 28.5422C45.3863 28.8874 45.5995 29.2001 45.8674 29.4624L52.4982 36.0936L45.8674 42.724C45.6032 42.9867 45.3937 43.2992 45.2511 43.6434C45.1085 43.9875 45.0355 44.3566 45.0365 44.7292V44.7292ZM47.2038 44.0608L54.5041 36.7616C54.6813 36.5843 54.7808 36.344 54.7808 36.0934C54.7808 35.8428 54.6813 35.6024 54.5041 35.4252L47.2053 28.126C47.028 27.9487 46.9284 27.7083 46.9284 27.4576C46.9284 27.2069 47.028 26.9665 47.2053 26.7892C47.3826 26.612 47.623 26.5124 47.8737 26.5124C48.1244 26.5124 48.3648 26.612 48.542 26.7892L57.1776 35.4252C57.2654 35.513 57.3351 35.6172 57.3826 35.7318C57.4301 35.8465 57.4545 35.9694 57.4545 36.0936C57.4545 36.2177 57.4301 36.3406 57.3826 36.4553C57.3351 36.57 57.2654 36.6742 57.1776 36.7619L48.5405 45.3971C48.3605 45.5692 48.1211 45.6652 47.8722 45.6652C47.6232 45.6652 47.3838 45.5692 47.2038 45.3971C47.0266 45.2199 46.9271 44.9796 46.9271 44.729C46.9271 44.4784 47.0266 44.238 47.2038 44.0608V44.0608Z" fill="#D954B8"/>
<path d="M19.6892 36.0935L26.3197 29.4623C26.842 28.9287 27.1328 28.2105 27.1288 27.4638C27.1249 26.7171 26.8265 26.0021 26.2984 25.4741C25.7704 24.946 25.0554 24.6476 24.3087 24.6437C23.5619 24.6397 22.8438 24.9304 22.3102 25.4528L13.6757 34.0899C13.4124 34.3532 13.2036 34.6658 13.0611 35.0098C12.9186 35.3538 12.8452 35.7225 12.8452 36.0948C12.8452 36.4672 12.9186 36.8359 13.0611 37.1799C13.2036 37.5239 13.4124 37.8365 13.6757 38.0998L22.3117 46.7354C22.5736 47.0049 22.8864 47.2196 23.232 47.3672C23.5776 47.5147 23.9491 47.592 24.3248 47.5947C24.7006 47.5974 25.0732 47.5254 25.4209 47.3828C25.7685 47.2403 26.0844 47.03 26.3501 46.7643C26.6158 46.4986 26.826 46.1827 26.9686 45.835C27.1111 45.4873 27.1831 45.1147 27.1804 44.7389C27.1777 44.3632 27.1003 43.9917 26.9527 43.6461C26.8051 43.3005 26.5903 42.9877 26.3208 42.7259L19.6892 36.0935ZM24.9818 45.3971C24.8016 45.5689 24.5622 45.6647 24.3132 45.6647C24.0643 45.6647 23.8249 45.5689 23.6447 45.3971L15.011 36.7619C14.9231 36.6741 14.8534 36.5699 14.8059 36.4552C14.7583 36.3405 14.7339 36.2175 14.7339 36.0933C14.7339 35.9692 14.7583 35.8462 14.8059 35.7315C14.8534 35.6168 14.9231 35.5125 15.011 35.4248L23.6466 26.7896C23.7342 26.7012 23.8384 26.6309 23.9532 26.5829C24.068 26.5349 24.1912 26.51 24.3157 26.5097C24.4401 26.5094 24.5634 26.5337 24.6784 26.5812C24.7935 26.6287 24.898 26.6985 24.986 26.7864C25.0741 26.8744 25.1438 26.979 25.1914 27.094C25.2389 27.209 25.2632 27.3323 25.263 27.4568C25.2627 27.5812 25.2379 27.7044 25.1899 27.8192C25.1419 27.9341 25.0717 28.0383 24.9833 28.1259L17.683 35.4251C17.5058 35.6024 17.4062 35.8427 17.4062 36.0933C17.4062 36.3439 17.5058 36.5843 17.683 36.7615L24.9818 44.0607C25.1592 44.2377 25.2591 44.4779 25.2595 44.7285C25.2598 44.9791 25.1606 45.2196 24.9837 45.3971H24.9818Z" fill="#D954B8"/>
<path d="M76.5284 43.8566L74.8113 42.14C73.7227 41.0536 72.2475 40.4434 70.7096 40.4434C69.1716 40.4434 67.6964 41.0536 66.6078 42.14L45.946 62.8021C45.3357 63.4132 44.8791 64.1604 44.6138 64.9823L41.5951 74.3577C41.4726 74.7359 41.457 75.1405 41.5499 75.527C41.6429 75.9135 41.8408 76.2668 42.1219 76.5479C42.403 76.829 42.7563 77.027 43.1428 77.1199C43.5293 77.2129 43.934 77.1972 44.3121 77.0747L53.6875 74.056C54.5094 73.7906 55.2565 73.334 55.8677 72.7238L76.5299 52.0616C77.6162 50.9726 78.2262 49.4971 78.2259 47.9588C78.2256 46.4206 77.6151 44.9453 76.5284 43.8566V43.8566ZM55.1978 70.7176L47.9504 63.4701L63.9415 47.4809L71.1889 54.7283L55.1978 70.7176ZM43.7326 75.2741C43.6855 75.2893 43.6351 75.2912 43.587 75.2796C43.5389 75.268 43.495 75.2433 43.46 75.2084C43.425 75.1734 43.4003 75.1294 43.3887 75.0813C43.3771 75.0332 43.379 74.9828 43.3942 74.9357L44.1503 72.5919L46.0783 74.5199L43.7326 75.2741ZM53.108 72.2551L48.0997 73.8682L44.8017 70.5701L46.4148 65.5615C46.4903 65.3319 46.5892 65.1107 46.71 64.9014L53.7684 71.9594C53.5582 72.0805 53.336 72.1796 53.1053 72.2551H53.108ZM75.192 50.7237L72.5238 53.392L65.2782 46.1445L67.9465 43.4763C68.6805 42.7441 69.6749 42.3329 70.7116 42.3329C71.7484 42.3329 72.7428 42.7441 73.4768 43.4763L75.1939 45.193C75.926 45.9272 76.337 46.9219 76.3367 47.9588C76.3363 48.9956 75.9246 49.99 75.192 50.7237V50.7237Z" fill="#D954B8"/>


</symbol>

<symbol id="stage5">

<path d="M59.0434 29.6839C58.6909 29.6839 58.3387 29.5745 58.0381 29.3561L55.0968 27.2194L52.1556 29.3561C51.5546 29.7928 50.7463 29.7928 50.145 29.3561C49.5432 28.9194 49.2936 28.1504 49.5234 27.4434L50.6469 23.9858L47.7056 21.8491C47.1043 21.4123 46.8546 20.6437 47.0841 19.9364C47.3139 19.2295 47.9678 18.7543 48.7113 18.7543H52.3469L53.4703 15.2966C53.7001 14.5897 54.3537 14.1145 55.0972 14.1145C55.8407 14.1145 56.4947 14.5897 56.7241 15.2966L57.8475 18.7543H61.4831C62.2266 18.7543 62.8805 19.2295 63.1103 19.9364C63.3401 20.6433 63.0901 21.412 62.4888 21.8491L59.5475 23.9858L60.671 27.4434C60.9008 28.1504 60.6512 28.919 60.0494 29.3561C59.7484 29.5749 59.3959 29.6839 59.0434 29.6839ZM55.0968 25.267C55.4493 25.267 55.8018 25.3764 56.1025 25.5948L58.6733 27.4625L57.6916 24.4405C57.4615 23.7339 57.7111 22.9649 58.3128 22.5278L60.884 20.6601H57.7061C56.963 20.6601 56.3091 20.1852 56.0793 19.4783L55.0972 16.4559L54.1151 19.4779C53.885 20.1849 53.2314 20.6601 52.4883 20.6601H49.3104L51.8812 22.5278C52.4826 22.9645 52.7322 23.7335 52.5027 24.4405L51.5207 27.4625L54.0915 25.5948C54.3918 25.3764 54.7443 25.267 55.0968 25.267ZM61.4827 20.6601H61.4865H61.4827ZM54.9116 15.8858C54.9116 15.8858 54.9116 15.8862 54.912 15.8866L54.9116 15.8858Z" fill="url(#paint0_linear)"/>
<path d="M35.1045 30.9057C37.4428 28.5365 38.2469 24.7633 38.5095 22.0149C38.5751 21.3278 39.0811 21.063 39.2957 20.9814C39.7217 20.8183 40.176 20.8873 40.5331 21.1624C40.9782 21.9597 43.3821 26.6341 41.344 31.2418C41.131 31.7231 41.3486 32.2856 41.8299 32.4983C42.3112 32.7105 42.8737 32.4937 43.0864 32.0124C45.7254 26.0453 42.2362 20.2852 42.086 20.0428C42.0407 19.9696 41.9858 19.9029 41.9225 19.8446C41.0235 19.0123 39.756 18.7658 38.6158 19.2006C37.4943 19.6285 36.7264 20.6373 36.6121 21.8331C36.3788 24.2732 35.6925 27.596 33.7478 29.5666C31.7155 31.6263 27.8638 35.0531 25.7008 36.9547V36.3042C25.7008 35.7779 25.2743 35.3515 24.748 35.3515H15.8279C15.3016 35.3515 14.8752 35.7779 14.8752 36.3042V53.9143C14.8752 54.4406 15.3016 54.867 15.8279 54.867H24.7484C25.2747 54.867 25.7011 54.4406 25.7011 53.9143V39.487C27.1001 38.2706 32.4834 33.5615 35.1045 30.9057ZM23.7957 52.9623H16.7806V37.2577H23.7957V52.9623Z" fill="url(#paint1_linear)"/>
<path d="M50.4384 33.7166H40.9028C39.2649 33.7166 37.9322 35.0492 37.9322 36.6868V48.9212C37.9322 49.4475 38.3586 49.8739 38.8849 49.8739C39.4112 49.8739 39.8376 49.4475 39.8376 48.9212V36.6868C39.8376 36.0995 40.3155 35.622 40.9028 35.622H50.4384C51.0256 35.622 51.5031 36.0995 51.5031 36.6868V51.8971C51.5031 52.4844 51.0256 52.9623 50.4384 52.9623H38.9794L28.5098 50.8613C27.9946 50.7584 27.4919 51.0919 27.3883 51.6079C27.285 52.1239 27.6188 52.6258 28.1348 52.7294L38.697 54.849C38.7588 54.8612 38.8217 54.8677 38.8845 54.8677H50.438C52.0759 54.8677 53.4082 53.535 53.4082 51.8971V36.6868C53.4086 35.0488 52.0763 33.7166 50.4384 33.7166Z" fill="url(#paint2_linear)"/>
<path d="M36.1083 0.536743C16.4609 0.536743 0.476562 16.5211 0.476562 36.1685C0.476562 46.9411 5.24855 56.9656 13.5921 63.7734L10.0476 76.3253C9.94737 76.6793 10.0605 77.0596 10.3376 77.3016C10.5144 77.4563 10.7381 77.5367 10.9645 77.5367C11.0929 77.5367 11.2221 77.5108 11.3444 77.4575L27.046 70.6284C30.0094 71.4062 33.0562 71.8002 36.1083 71.8002C55.7557 71.8002 71.74 55.8159 71.74 36.1685C71.74 16.5211 55.7557 0.536743 36.1083 0.536743ZM36.1083 69.8948C33.1141 69.8948 30.1237 69.4939 27.2213 68.7027C27.0117 68.646 26.7899 68.6616 26.591 68.7485L12.4279 74.9084L15.5974 63.683C15.7022 63.3119 15.573 62.914 15.27 62.6754C7.07968 56.2278 2.382 46.5661 2.382 36.1685C2.382 17.5718 17.5116 2.44218 36.1083 2.44218C54.705 2.44218 69.8346 17.5718 69.8346 36.1685C69.8346 54.7652 54.705 69.8948 36.1083 69.8948Z" fill="url(#paint3_linear)"/>
<defs>
<linearGradient id="paint0_linear" x1="55.0973" y1="14.1145" x2="55.0973" y2="29.6839" gradientUnits="userSpaceOnUse">
<stop stop-color="#6777C4"/>
<stop offset="1" stop-color="#934CC4"/>
</linearGradient>
<linearGradient id="paint1_linear" x1="29.4727" y1="18.9893" x2="29.4727" y2="54.867" gradientUnits="userSpaceOnUse">
<stop stop-color="#6777C4"/>
<stop offset="1" stop-color="#934CC4"/>
</linearGradient>
<linearGradient id="paint2_linear" x1="40.3888" y1="33.7166" x2="40.3888" y2="54.8677" gradientUnits="userSpaceOnUse">
<stop stop-color="#6777C4"/>
<stop offset="1" stop-color="#934CC4"/>
</linearGradient>
<linearGradient id="paint3_linear" x1="36.1083" y1="0.536743" x2="36.1083" y2="77.5367" gradientUnits="userSpaceOnUse">
<stop stop-color="#6777C4"/>
<stop offset="1" stop-color="#934CC4"/>
</linearGradient>
</defs>
</symbol>

<symbol id="u">
<path d="M24.2837 11.4963C23.8858 11.4963 23.5675 11.8123 23.5675 12.2073V18.6749C23.5675 20.434 22.1244 21.8613 20.3576 21.8613H4.6424C2.87033 21.8613 1.43251 20.4287 1.43251 18.6749V12.102C1.43251 11.707 1.11418 11.3909 0.716256 11.3909C0.318336 11.3909 0 11.707 0 12.102V18.6749C0 21.2187 2.0851 23.2833 4.6424 23.2833H20.3576C22.9202 23.2833 25 21.2135 25 18.6749V12.2073C25 11.8176 24.6817 11.4963 24.2837 11.4963Z" fill="url(#paint0_linear)"/>
<path d="M8.45187 6.01884L11.7838 2.71131V17.137C11.7838 17.532 12.1021 17.848 12.5 17.848C12.898 17.848 13.2163 17.532 13.2163 17.137V2.71131L16.5482 6.01884C16.6862 6.15578 16.8719 6.22951 17.0523 6.22951C17.2379 6.22951 17.4183 6.16104 17.5563 6.01884C17.8375 5.7397 17.8375 5.29203 17.5563 5.01289L13.0041 0.493996C12.8714 0.362327 12.6857 0.283325 12.5 0.283325C12.309 0.283325 12.1287 0.35706 11.996 0.493996L7.44381 5.01289C7.16261 5.29203 7.16261 5.7397 7.44381 6.01884C7.7197 6.29271 8.17598 6.29271 8.45187 6.01884Z" fill="url(#paint1_linear)"/>
<!-- <defs>
<linearGradient id="paint0_linear" x1="25" y1="17.3371" x2="-6.98492e-07" y2="17.3371" gradientUnits="userSpaceOnUse">
<stop stop-color="#934CC4"/>
<stop offset="1" stop-color="#5D78ED"/>
</linearGradient>
<linearGradient id="paint1_linear" x1="17.7672" y1="9.06567" x2="7.23291" y2="9.06567" gradientUnits="userSpaceOnUse">
<stop stop-color="#934CC4"/>
<stop offset="1" stop-color="#5D78ED"/>
</linearGradient>
</defs> -->
</symbol>


<symbol id="square">
<rect width="4.62963" height="4.62963" fill="#6777C4" fill-opacity="0.8"/>
<rect x="10" width="4.62963" height="4.62963" fill="#6777C4" fill-opacity="0.8"/>
<rect y="10" width="4.62963" height="4.62963" fill="#6777C4" fill-opacity="0.8"/>
<rect x="10" y="10" width="4.62963" height="4.62963" fill="#6777C4" fill-opacity="0.8"/>
<rect y="20" width="4.62963" height="4.62963" fill="#6777C4" fill-opacity="0.8"/>
<rect x="10" y="20" width="4.62963" height="4.62963" fill="#6777C4" fill-opacity="0.8"/>
<rect x="20" y="10" width="4.62963" height="4.62963" fill="#6777C4" fill-opacity="0.8"/>
<rect x="20" y="20" width="4.62963" height="4.62963" fill="#6777C4" fill-opacity="0.8"/>
<rect x="20" width="4.62963" height="4.62963" fill="#6777C4" fill-opacity="0.8"/>
</symbol>


</svg>

