<svg width="79" height="78" viewBox="0 0 79 78" fill="none" xmlns="http://www.w3.org/2000/svg">
<path d="M36.0936 72.0074C28.9905 72.0074 22.0469 69.9011 16.1409 65.9548C10.2349 62.0086 5.63172 56.3996 2.91348 49.8372C0.195249 43.2748 -0.515966 36.0537 0.869778 29.0871C2.25552 22.1205 5.67599 15.7213 10.6986 10.6986C15.7213 5.67599 22.1205 2.25552 29.0871 0.869778C36.0537 -0.515966 43.2748 0.195249 49.8372 2.91348C56.3996 5.63172 62.0086 10.2349 65.9548 16.1409C69.9011 22.0469 72.0074 28.9905 72.0074 36.0936C72.0074 36.3442 71.9078 36.5846 71.7306 36.7618C71.5534 36.9391 71.313 37.0387 71.0623 37.0387C70.8117 37.0387 70.5713 36.9391 70.394 36.7618C70.2168 36.5846 70.1172 36.3442 70.1172 36.0936C70.1172 29.3643 68.1218 22.7862 64.3832 17.191C60.6446 11.5959 55.3309 7.23497 49.1138 4.6598C42.8968 2.08463 36.0558 1.41085 29.4559 2.72366C22.8559 4.03647 16.7935 7.27691 12.0352 12.0352C7.27691 16.7935 4.03647 22.8559 2.72366 29.4559C1.41085 36.0558 2.08463 42.8968 4.6598 49.1138C7.23497 55.3309 11.5959 60.6446 17.191 64.3832C22.7862 68.1218 29.3643 70.1172 36.0936 70.1172C36.3442 70.1172 36.5846 70.2168 36.7618 70.394C36.9391 70.5713 37.0387 70.8117 37.0387 71.0623C37.0387 71.313 36.9391 71.5534 36.7618 71.7306C36.5846 71.9078 36.3442 72.0074 36.0936 72.0074Z" fill="url(#paint0_linear)"/>
<path d="M42.6896 20.2359C41.9954 19.9486 41.2156 19.9482 40.5212 20.2348C39.8267 20.5215 39.2742 21.0718 38.9848 21.7651L27.9679 48.2438C27.8249 48.5876 27.751 48.9562 27.7505 49.3285C27.7499 49.7009 27.8227 50.0697 27.9647 50.4139C28.1067 50.7581 28.3151 51.071 28.578 51.3347C28.8409 51.5984 29.1531 51.8077 29.4969 51.9507C30.1912 52.2395 30.9718 52.2407 31.667 51.9539C32.3622 51.6672 32.915 51.116 33.2038 50.4217L44.2191 23.943C44.507 23.2485 44.5076 22.4682 44.2208 21.7732C43.9341 21.0783 43.3834 20.5254 42.6896 20.2359ZM42.4737 23.2168L31.4588 49.6955C31.3597 49.9246 31.1751 50.1061 30.9444 50.2013C30.7136 50.2965 30.4548 50.298 30.2229 50.2055C29.9916 50.1092 29.8079 49.925 29.7123 49.6933C29.6168 49.4616 29.6171 49.2014 29.7133 48.97L40.7283 22.4913C40.8004 22.3189 40.9219 22.1716 41.0775 22.068C41.2331 21.9644 41.4158 21.9091 41.6027 21.9091C41.7267 21.909 41.8494 21.9335 41.9638 21.9813C42.1952 22.0775 42.379 22.2617 42.4746 22.4934C42.5702 22.7251 42.5699 22.9853 42.4737 23.2168Z" fill="url(#paint1_linear)"/>
<path d="M45.0365 44.7292C45.037 45.2896 45.2035 45.8372 45.5151 46.3031C45.8267 46.7689 46.2693 47.1319 46.7871 47.3463C47.3049 47.5607 47.8746 47.6168 48.4242 47.5076C48.9739 47.3984 49.4789 47.1288 49.8754 46.7328L58.5114 38.0972C58.7747 37.8339 58.9835 37.5213 59.126 37.1773C59.2685 36.8333 59.3419 36.4646 59.3419 36.0922C59.3419 35.7199 59.2685 35.3512 59.126 35.0072C58.9835 34.6632 58.7747 34.3506 58.5114 34.0873L49.8769 25.4529C49.6147 25.185 49.3019 24.9718 48.9567 24.8255C48.6115 24.6793 48.2408 24.603 47.8659 24.601C47.491 24.599 47.1195 24.6714 46.7728 24.8139C46.426 24.9564 46.111 25.1663 45.8459 25.4314C45.5809 25.6965 45.371 26.0115 45.2285 26.3582C45.0859 26.7049 45.0135 27.0765 45.0155 27.4514C45.0175 27.8262 45.0939 28.197 45.2401 28.5422C45.3863 28.8874 45.5995 29.2001 45.8674 29.4624L52.4982 36.0936L45.8674 42.724C45.6032 42.9867 45.3937 43.2992 45.2511 43.6434C45.1085 43.9875 45.0355 44.3566 45.0365 44.7292ZM47.2038 44.0608L54.5041 36.7616C54.6813 36.5843 54.7808 36.344 54.7808 36.0934C54.7808 35.8428 54.6813 35.6024 54.5041 35.4252L47.2053 28.126C47.028 27.9487 46.9284 27.7083 46.9284 27.4576C46.9284 27.2069 47.028 26.9665 47.2053 26.7892C47.3826 26.612 47.623 26.5124 47.8737 26.5124C48.1244 26.5124 48.3648 26.612 48.542 26.7892L57.1776 35.4252C57.2654 35.513 57.3351 35.6172 57.3826 35.7318C57.4301 35.8465 57.4545 35.9694 57.4545 36.0936C57.4545 36.2177 57.4301 36.3406 57.3826 36.4553C57.3351 36.57 57.2654 36.6742 57.1776 36.7619L48.5405 45.3972C48.3605 45.5692 48.1211 45.6652 47.8722 45.6652C47.6232 45.6652 47.3838 45.5692 47.2038 45.3972C47.0266 45.2199 46.9271 44.9796 46.9271 44.729C46.9271 44.4784 47.0266 44.238 47.2038 44.0608Z" fill="url(#paint2_linear)"/>
<path d="M19.6892 36.0936L26.3197 29.4624C26.842 28.9288 27.1328 28.2106 27.1288 27.4639C27.1249 26.7172 26.8265 26.0021 26.2984 25.4741C25.7704 24.9461 25.0554 24.6477 24.3087 24.6437C23.5619 24.6397 22.8438 24.9305 22.3102 25.4529L13.6757 34.09C13.4124 34.3533 13.2036 34.6658 13.0611 35.0098C12.9186 35.3538 12.8452 35.7226 12.8452 36.0949C12.8452 36.4673 12.9186 36.836 13.0611 37.18C13.2036 37.524 13.4124 37.8366 13.6757 38.0998L22.3117 46.7354C22.5736 47.0049 22.8864 47.2197 23.232 47.3672C23.5776 47.5148 23.9491 47.5921 24.3248 47.5948C24.7006 47.5975 25.0732 47.5255 25.4208 47.3829C25.7685 47.2403 26.0844 47.0301 26.3501 46.7643C26.6158 46.4986 26.826 46.1827 26.9686 45.835C27.1111 45.4873 27.1831 45.1148 27.1804 44.739C27.1777 44.3632 27.1003 43.9918 26.9527 43.6462C26.8051 43.3006 26.5903 42.9878 26.3208 42.7259L19.6892 36.0936ZM24.9818 45.3972C24.8016 45.5689 24.5622 45.6648 24.3132 45.6648C24.0643 45.6648 23.8249 45.5689 23.6447 45.3972L15.011 36.762C14.9231 36.6742 14.8534 36.57 14.8059 36.4552C14.7583 36.3405 14.7339 36.2176 14.7339 36.0934C14.7339 35.9692 14.7583 35.8463 14.8059 35.7315C14.8534 35.6168 14.9231 35.5126 15.011 35.4248L23.6466 26.7896C23.7342 26.7012 23.8384 26.631 23.9532 26.583C24.068 26.535 24.1912 26.5101 24.3157 26.5098C24.4401 26.5095 24.5634 26.5338 24.6784 26.5813C24.7935 26.6288 24.898 26.6985 24.986 26.7865C25.0741 26.8745 25.1438 26.979 25.1914 27.094C25.2389 27.2091 25.2632 27.3324 25.263 27.4568C25.2627 27.5813 25.2379 27.7045 25.1899 27.8193C25.1419 27.9341 25.0717 28.0384 24.9833 28.126L17.683 35.4252C17.5058 35.6024 17.4062 35.8428 17.4062 36.0934C17.4062 36.344 17.5058 36.5843 17.683 36.7616L24.9818 44.0608C25.1592 44.2378 25.2591 44.478 25.2595 44.7286C25.2598 44.9792 25.1606 45.2197 24.9837 45.3972H24.9818Z" fill="url(#paint3_linear)"/>
<path d="M76.5284 43.8567L74.8113 42.14C73.7227 41.0536 72.2475 40.4435 70.7096 40.4435C69.1716 40.4435 67.6964 41.0536 66.6078 42.14L45.946 62.8022C45.3357 63.4133 44.8791 64.1605 44.6138 64.9824L41.5951 74.3578C41.4726 74.7359 41.457 75.1406 41.5499 75.5271C41.6429 75.9136 41.8408 76.2669 42.1219 76.548C42.403 76.8291 42.7563 77.027 43.1428 77.12C43.5293 77.2129 43.934 77.1973 44.3121 77.0748L53.6875 74.0561C54.5093 73.7906 55.2565 73.3341 55.8677 72.7239L76.5299 52.0617C77.6162 50.9727 78.2262 49.4971 78.2259 47.9589C78.2256 46.4206 77.6151 44.9453 76.5284 43.8567ZM55.1978 70.7176L47.9504 63.4702L63.9415 47.481L71.1889 54.7284L55.1978 70.7176ZM43.7326 75.2742C43.6855 75.2893 43.6351 75.2912 43.587 75.2796C43.5389 75.268 43.495 75.2434 43.46 75.2084C43.425 75.1734 43.4003 75.1295 43.3887 75.0814C43.3771 75.0333 43.379 74.9829 43.3942 74.9358L44.1503 72.5919L46.0783 74.52L43.7326 75.2742ZM53.108 72.2551L48.0997 73.8682L44.8017 70.5702L46.4148 65.5615C46.4903 65.332 46.5892 65.1108 46.71 64.9015L53.7684 71.9595C53.5582 72.0806 53.336 72.1796 53.1053 72.2551H53.108ZM75.192 50.7238L72.5238 53.392L65.2782 46.1446L67.9465 43.4764C68.6805 42.7442 69.6749 42.333 70.7116 42.333C71.7484 42.333 72.7428 42.7442 73.4768 43.4764L75.1939 45.1931C75.926 45.9273 76.337 46.922 76.3367 47.9588C76.3363 48.9957 75.9246 49.9901 75.192 50.7238Z" fill="url(#paint4_linear)"/>
<defs>
<linearGradient id="paint0_linear" x1="36.0936" y1="0.179687" x2="36.0936" y2="72.0074" gradientUnits="userSpaceOnUse">
<stop stop-color="#6777C4"/>
<stop offset="1" stop-color="#934CC4"/>
</linearGradient>
<linearGradient id="paint1_linear" x1="36.093" y1="20.0201" x2="36.093" y2="52.1681" gradientUnits="userSpaceOnUse">
<stop stop-color="#6777C4"/>
<stop offset="1" stop-color="#934CC4"/>
</linearGradient>
<linearGradient id="paint2_linear" x1="52.1787" y1="24.601" x2="52.1787" y2="47.562" gradientUnits="userSpaceOnUse">
<stop stop-color="#6777C4"/>
<stop offset="1" stop-color="#934CC4"/>
</linearGradient>
<linearGradient id="paint3_linear" x1="20.0128" y1="24.6437" x2="20.0128" y2="47.5949" gradientUnits="userSpaceOnUse">
<stop stop-color="#6777C4"/>
<stop offset="1" stop-color="#934CC4"/>
</linearGradient>
<linearGradient id="paint4_linear" x1="59.858" y1="40.4435" x2="59.858" y2="77.1798" gradientUnits="userSpaceOnUse">
<stop stop-color="#6777C4"/>
<stop offset="1" stop-color="#934CC4"/>
</linearGradient>
</defs>
</svg>
