<svg width="81" height="78" viewBox="0 0 81 78" fill="none" xmlns="http://www.w3.org/2000/svg">
<path d="M12.0423 32.8423C11.9571 32.8423 11.8711 32.8307 11.7852 32.807C11.2744 32.6653 10.9754 32.1365 11.117 31.6257C14.7175 18.655 26.644 9.59631 40.1202 9.59631C40.3201 9.59631 40.52 9.59823 40.7192 9.60207C41.2492 9.61243 41.6702 10.0503 41.6598 10.5803C41.6498 11.1099 41.2108 11.5343 40.682 11.5209C40.4951 11.517 40.3078 11.5151 40.1202 11.5151C27.5029 11.5151 16.3366 19.9962 12.966 32.1392C12.8482 32.5637 12.4625 32.8423 12.0423 32.8423Z" fill="url(#paint0_linear)"/>
<path d="M40.1202 69.7892C39.7157 69.7892 39.3127 69.7812 38.9121 69.7651C38.3829 69.744 37.9703 69.2976 37.9914 68.7684C38.0122 68.2385 38.4642 67.8278 38.9881 67.8478C39.3634 67.8628 39.741 67.8704 40.1202 67.8704C53.2229 67.8704 64.7918 58.6011 67.6281 45.8295C67.7429 45.3122 68.256 44.9864 68.7725 45.1011C69.2898 45.2159 69.616 45.7286 69.5009 46.2455C68.0403 52.8228 64.3385 58.7972 59.078 63.0688C53.741 67.403 47.0083 69.7892 40.1202 69.7892Z" fill="url(#paint1_linear)"/>
<path d="M22.4042 33.0698C10.1166 33.0698 0.119965 43.0668 0.119965 55.3541C0.119965 59.6487 1.33841 63.7999 3.64788 67.3907L0.63267 75.8419C0.507947 76.1908 0.595828 76.5807 0.857937 76.8424C1.12005 77.1049 1.50918 77.192 1.8584 77.0677L10.2912 74.059C13.9008 76.4018 18.0781 77.6376 22.4038 77.6376C34.6915 77.6376 44.6877 67.641 44.6877 55.3537C44.6877 43.0664 34.6918 33.0698 22.4042 33.0698ZM22.4042 75.7195C18.3003 75.7195 14.3433 74.503 10.9616 72.2016C10.8004 72.0918 10.6116 72.035 10.4216 72.035C10.313 72.035 10.2041 72.0534 10.0993 72.0911L3.11982 74.5809L5.61581 67.5853C5.71827 67.2983 5.67836 66.9794 5.50759 66.7268C3.23802 63.3616 2.03839 59.4292 2.03839 55.3545C2.03839 44.1248 11.1742 34.989 22.4038 34.989C33.6331 34.989 42.7689 44.1252 42.7689 55.3545C42.7689 66.5837 33.6338 75.7195 22.4042 75.7195Z" fill="url(#paint2_linear)"/>
<path d="M76.592 35.2879C78.9019 31.6971 80.12 27.5459 80.12 23.2509C80.12 10.9632 70.1234 0.967041 57.8357 0.967041C45.5481 0.967041 35.5519 10.9636 35.5519 23.2509C35.5519 35.5382 45.5485 45.5351 57.8357 45.5351C62.1619 45.5351 66.3391 44.2994 69.9484 41.9566L78.3811 44.9652C78.73 45.0892 79.1199 45.0025 79.3816 44.74C79.6437 44.4779 79.7316 44.0884 79.6069 43.7395L76.592 35.2879ZM70.141 39.9879C69.852 39.8843 69.532 39.9257 69.2787 40.0984C65.897 42.3998 61.94 43.6163 57.8361 43.6163C46.6069 43.6163 37.4711 34.4801 37.4711 23.2509C37.4711 12.0217 46.6069 2.88585 57.8361 2.88585C69.0657 2.88585 78.2015 12.0217 78.2015 23.2509C78.2015 27.3261 77.0019 31.2585 74.7323 34.6237C74.562 34.8762 74.5217 35.1951 74.6241 35.4821L77.1201 42.4777L70.141 39.9879Z" fill="url(#paint3_linear)"/>
<path d="M22.1617 70.9102C21.1946 70.9102 20.2878 70.5345 19.6074 69.8525C18.9293 69.176 18.5547 68.2699 18.5547 67.3024C18.5547 66.3519 18.9193 65.4535 19.5816 64.7719C20.2601 64.0693 21.1773 63.6813 22.1617 63.6813C23.1288 63.6813 24.0386 64.0593 24.7233 64.7454C25.4064 65.4285 25.7832 66.3369 25.7832 67.3021C25.7832 68.2841 25.3952 69.2013 24.6903 69.8848C24.0083 70.5464 23.1103 70.9102 22.1617 70.9102ZM22.1617 65.6005C21.7023 65.6005 21.2756 65.7805 20.9597 66.1074C20.6454 66.4305 20.4735 66.8542 20.4735 67.3024C20.4735 67.7564 20.6477 68.1797 20.9643 68.4952C21.2836 68.8156 21.7081 68.991 22.1617 68.991C22.6091 68.991 23.0328 68.8195 23.3544 68.5075C23.6829 68.1886 23.8644 67.7607 23.8644 67.3021C23.8644 66.8492 23.6875 66.4229 23.3659 66.1013C23.0428 65.7785 22.6157 65.6005 22.1617 65.6005Z" fill="url(#paint4_linear)"/>
<path d="M22.4856 62.3051H21.7257C20.9701 62.3051 20.2333 61.9962 19.7045 61.4578C19.1752 60.919 18.8797 60.1768 18.8932 59.4215C18.9185 57.9675 19.1603 56.7559 19.6315 55.7179C20.0967 54.6944 20.8722 53.6847 22.0024 52.6297C22.9196 51.7739 23.2692 51.3453 23.3958 51.1665C23.5547 50.942 23.6683 50.7175 23.7339 50.4991C23.7854 50.3283 23.8464 50.0098 23.8464 49.4591C23.8464 48.8462 23.7366 48.4168 23.5198 48.1835C23.4546 48.1132 23.2773 47.9229 22.6126 47.9229C21.7913 47.9229 21.5553 48.1685 21.4663 48.261C21.2752 48.4594 21.0787 48.7545 21.0687 49.438C21.0461 50.9773 19.7754 52.2291 18.2362 52.2291H17.4763C16.7242 52.2291 15.9893 51.9221 15.4608 51.3871C14.9324 50.8522 14.6342 50.1138 14.6434 49.3616C14.6718 47.0614 15.4616 45.1498 16.9913 43.68C18.4979 42.2313 20.3895 41.4968 22.613 41.4968C24.8929 41.4968 26.7714 42.2663 28.1963 43.784C29.5744 45.25 30.2732 47.1669 30.2732 49.4806C30.2732 51.0011 29.9585 52.3976 29.338 53.6314C28.7528 54.7953 27.7419 56.0203 26.2483 57.3765C26.1962 57.4237 26.1424 57.469 26.0872 57.5123C25.8385 57.7065 25.3196 58.1118 25.3196 59.4726C25.3189 61.0345 24.0479 62.3051 22.4856 62.3051ZM22.6122 46.0041C23.6211 46.0041 24.3775 46.2896 24.9248 46.8764C25.4908 47.4866 25.7648 48.3308 25.7648 49.4587C25.7648 50.0881 25.6996 50.6238 25.571 51.0509C25.4459 51.4673 25.241 51.8791 24.9624 52.274C24.6619 52.6988 24.1062 53.2906 23.311 54.0328C22.3689 54.912 21.7369 55.7225 21.378 56.5115C21.0177 57.3051 20.8323 58.2683 20.8112 59.4557C20.807 59.6998 20.9022 59.9392 21.0733 60.1131C21.2437 60.2865 21.4817 60.3863 21.7257 60.3863H22.4856C22.9898 60.3863 23.4001 59.9765 23.4001 59.4722C23.4001 57.9264 23.8928 56.7901 24.906 55.9988C24.9244 55.9846 24.9416 55.97 24.9581 55.955C26.2741 54.7608 27.1456 53.7185 27.623 52.769C28.1077 51.8047 28.3533 50.6983 28.3533 49.4802C28.3533 47.6708 27.8294 46.196 26.7967 45.0973C26.7967 45.0973 26.7967 45.0973 26.7964 45.0969C25.7491 43.9813 24.3411 43.4152 22.6122 43.4152C20.9014 43.4152 19.4573 43.9698 18.3198 45.0631C17.1743 46.1637 16.5829 47.6174 16.5611 49.3847C16.558 49.6276 16.6543 49.8659 16.8251 50.0386C16.9959 50.2113 17.2326 50.3103 17.4756 50.3103H18.2354C18.732 50.3103 19.1422 49.9062 19.1495 49.4096C19.1649 48.378 19.47 47.5675 20.0828 46.9301C20.683 46.3073 21.51 46.0041 22.6122 46.0041Z" fill="url(#paint5_linear)"/>
<path d="M66.4711 31.894H59.5078C58.9778 31.894 58.5484 31.4646 58.5484 30.9346C58.5484 30.4046 58.9778 29.9752 59.5078 29.9752H66.4711C67.0011 29.9752 67.4305 30.4046 67.4305 30.9346C67.4305 31.4646 67.0007 31.894 66.4711 31.894Z" fill="url(#paint6_linear)"/>
<path d="M54.9709 31.894H46.4146C45.8846 31.894 45.4552 31.4646 45.4552 30.9346C45.4552 30.4046 45.8846 29.9752 46.4146 29.9752H54.9709C55.5009 29.9752 55.9303 30.4046 55.9303 30.9346C55.9303 31.4646 55.5009 31.894 54.9709 31.894Z" fill="url(#paint7_linear)"/>
<path d="M69.2572 24.4836H65.8962C65.3663 24.4836 64.9368 24.0542 64.9368 23.5242C64.9368 22.9942 65.3663 22.5648 65.8962 22.5648H69.2572C69.7872 22.5648 70.2166 22.9942 70.2166 23.5242C70.2166 24.0542 69.7872 24.4836 69.2572 24.4836Z" fill="url(#paint8_linear)"/>
<path d="M61.3598 24.4836H46.415C45.885 24.4836 45.4556 24.0542 45.4556 23.5242C45.4556 22.9942 45.885 22.5648 46.415 22.5648H61.3598C61.8898 22.5648 62.3192 22.9942 62.3192 23.5242C62.3192 24.0542 61.8898 24.4836 61.3598 24.4836Z" fill="url(#paint9_linear)"/>
<path d="M65.7853 17.0727H46.4146C45.8846 17.0727 45.4552 16.6433 45.4552 16.1133C45.4552 15.5834 45.8846 15.1539 46.4146 15.1539H65.7853C66.3153 15.1539 66.7447 15.5834 66.7447 16.1133C66.7447 16.6433 66.3153 17.0727 65.7853 17.0727Z" fill="url(#paint10_linear)"/>
<defs>
<linearGradient id="paint0_linear" x1="26.3709" y1="9.59631" x2="26.3709" y2="32.8423" gradientUnits="userSpaceOnUse">
<stop stop-color="#6777C4"/>
<stop offset="1" stop-color="#934CC4"/>
</linearGradient>
<linearGradient id="paint1_linear" x1="53.7573" y1="45.0781" x2="53.7573" y2="69.7892" gradientUnits="userSpaceOnUse">
<stop stop-color="#6777C4"/>
<stop offset="1" stop-color="#934CC4"/>
</linearGradient>
<linearGradient id="paint2_linear" x1="22.4038" y1="33.0698" x2="22.4038" y2="77.6376" gradientUnits="userSpaceOnUse">
<stop stop-color="#6777C4"/>
<stop offset="1" stop-color="#934CC4"/>
</linearGradient>
<linearGradient id="paint3_linear" x1="57.8359" y1="0.967041" x2="57.8359" y2="45.5351" gradientUnits="userSpaceOnUse">
<stop stop-color="#6777C4"/>
<stop offset="1" stop-color="#934CC4"/>
</linearGradient>
<linearGradient id="paint4_linear" x1="22.169" y1="63.6813" x2="22.169" y2="70.9102" gradientUnits="userSpaceOnUse">
<stop stop-color="#6777C4"/>
<stop offset="1" stop-color="#934CC4"/>
</linearGradient>
<linearGradient id="paint5_linear" x1="22.4582" y1="41.4968" x2="22.4582" y2="62.3051" gradientUnits="userSpaceOnUse">
<stop stop-color="#6777C4"/>
<stop offset="1" stop-color="#934CC4"/>
</linearGradient>
<linearGradient id="paint6_linear" x1="62.9894" y1="29.9752" x2="62.9894" y2="31.894" gradientUnits="userSpaceOnUse">
<stop stop-color="#6777C4"/>
<stop offset="1" stop-color="#934CC4"/>
</linearGradient>
<linearGradient id="paint7_linear" x1="50.6928" y1="29.9752" x2="50.6928" y2="31.894" gradientUnits="userSpaceOnUse">
<stop stop-color="#6777C4"/>
<stop offset="1" stop-color="#934CC4"/>
</linearGradient>
<linearGradient id="paint8_linear" x1="67.5767" y1="22.5648" x2="67.5767" y2="24.4836" gradientUnits="userSpaceOnUse">
<stop stop-color="#6777C4"/>
<stop offset="1" stop-color="#934CC4"/>
</linearGradient>
<linearGradient id="paint9_linear" x1="53.8874" y1="22.5648" x2="53.8874" y2="24.4836" gradientUnits="userSpaceOnUse">
<stop stop-color="#6777C4"/>
<stop offset="1" stop-color="#934CC4"/>
</linearGradient>
<linearGradient id="paint10_linear" x1="56.1" y1="15.1539" x2="56.1" y2="17.0727" gradientUnits="userSpaceOnUse">
<stop stop-color="#6777C4"/>
<stop offset="1" stop-color="#934CC4"/>
</linearGradient>
</defs>
</svg>
