<svg width="78" height="78" viewBox="0 0 78 78" fill="none" xmlns="http://www.w3.org/2000/svg">
<path d="M38.6432 60.5897C26.6471 60.5897 16.8877 50.8299 16.8877 38.8342C16.8877 26.8385 26.6475 17.0787 38.6432 17.0787C50.1874 17.0787 59.7383 26.2202 60.3619 37.6443H64.6268C64.9857 37.6443 65.3151 37.8456 65.4785 38.1654C65.6422 38.4853 65.6127 38.8698 65.4023 39.1609L57.9175 49.5226C57.7377 49.7712 57.4492 49.9189 57.1423 49.9189C56.8355 49.9189 56.5466 49.7712 56.3672 49.5226L48.8824 39.1609C48.6719 38.8698 48.6425 38.4853 48.8062 38.1654C48.9696 37.8456 49.2986 37.6443 49.6579 37.6443H54.6072C55.1356 37.6443 55.5637 38.0724 55.5637 38.6008C55.5637 39.1292 55.1356 39.5573 54.6072 39.5573H51.5288L57.1427 47.3291L62.7566 39.5573H59.4368C58.9126 39.5573 58.4864 39.1353 58.4803 38.6111C58.3605 27.7931 49.462 18.9917 38.6436 18.9917C27.7023 18.9917 18.8011 27.8933 18.8011 38.8342C18.8011 49.7751 27.7027 58.6767 38.6436 58.6767C43.8959 58.6767 48.9497 56.5762 52.6567 52.8826L50.4973 50.9156C47.3447 54.0051 43.0764 55.7597 38.6436 55.7597C29.3104 55.7597 21.7177 48.1666 21.7177 38.8338C21.7177 29.501 29.3108 21.9079 38.6436 21.9079C46.1934 21.9079 52.8939 26.9866 54.9374 34.2591C55.0801 34.7675 54.784 35.2955 54.2751 35.4386C53.767 35.5809 53.2387 35.2848 53.0956 34.7763C51.2836 28.3261 45.3402 23.8209 38.644 23.8209C30.3656 23.8209 23.6311 30.5559 23.6311 38.8338C23.6311 47.1118 30.366 53.8467 38.644 53.8467C42.8598 53.8467 46.907 52.0577 49.7474 48.9383C49.9181 48.7508 50.1564 48.6387 50.4101 48.6273C50.6576 48.6146 50.9109 48.7045 51.0988 48.8752L54.6692 52.1281C55.0598 52.4839 55.0882 53.0888 54.7323 53.479C50.6159 57.9983 44.7518 60.5897 38.6432 60.5897Z" fill="url(#paint0_linear)"/>
<path d="M74.0062 30.5831C74.0059 30.5831 74.0055 30.5827 74.0051 30.5827L64.6034 28.16L69.5386 19.7983C70.5659 18.0536 70.2831 15.8361 68.8518 14.4044L63.264 8.81611C61.8323 7.38595 59.6143 7.10359 57.8693 8.13011L49.5079 13.0649L47.0849 3.66209C46.5776 1.70279 44.8092 0.334229 42.7852 0.334229H34.883C32.859 0.334229 31.0906 1.70279 30.5829 3.66324L28.1603 13.0649L19.7982 8.12934C18.0524 7.10244 15.8356 7.38557 14.4043 8.81611L8.81636 14.404C7.38505 15.8353 7.10269 18.0532 8.12997 19.7987L13.0648 28.16L3.66196 30.5831C1.70227 31.0904 0.33371 32.8588 0.33371 34.8827V42.785C0.33371 44.8093 1.70227 46.5773 3.66311 47.0854L13.0648 49.5077L8.12959 57.8694C7.10231 59.6144 7.38505 61.832 8.81636 63.2637L14.4043 68.8516C15.8348 70.2825 18.0531 70.5649 19.7989 69.538L28.1603 64.6032L30.5833 74.006C31.091 75.9657 32.859 77.3342 34.883 77.3342H42.7852C44.8092 77.3342 46.5772 75.9657 47.0853 74.0048L49.5079 64.6032L57.8697 69.5384C59.6151 70.5653 61.8315 70.2829 63.2636 68.8516L68.8515 63.2637C70.2828 61.8324 70.5651 59.6144 69.5378 57.8686L64.6031 49.5073L74.0059 47.0846C75.9655 46.5769 77.3341 44.8089 77.3341 42.7846V34.8823C77.3345 32.8588 75.9659 31.0904 74.0062 30.5831ZM75.4215 42.785C75.4215 43.9377 74.6421 44.9444 73.5276 45.2328L62.8944 47.9723C62.6032 48.0473 62.3645 48.2546 62.2493 48.5324C62.1341 48.8106 62.1563 49.1258 62.309 49.3848L67.89 58.8404C68.4746 59.8337 68.3139 61.0963 67.4993 61.9112L61.9115 67.4991C61.0961 68.3136 59.8339 68.4739 58.8418 67.8901L49.3855 62.3087C49.1268 62.1564 48.8112 62.1339 48.533 62.249C48.2553 62.3642 48.0479 62.6029 47.9729 62.8941L45.2335 73.5262C44.9442 74.6419 43.9376 75.4212 42.7856 75.4212H34.8834C33.731 75.4212 32.7243 74.6419 32.4359 73.5273L29.6961 62.8941C29.6211 62.6029 29.4137 62.3642 29.1359 62.249C29.0181 62.2001 28.8937 62.1763 28.7698 62.1763C28.601 62.1763 28.4327 62.2211 28.2835 62.3091L18.8279 67.8901C17.835 68.4747 16.5721 68.3136 15.7575 67.4995L10.1696 61.9116C9.35468 61.0966 9.19399 59.8337 9.7786 58.8416L15.36 49.3852C15.5126 49.1262 15.5348 48.8109 15.4197 48.5328C15.3045 48.255 15.0658 48.0476 14.7746 47.9727L4.1425 45.2336C3.02684 44.9444 2.24748 43.9377 2.24748 42.7853V34.8831C2.24748 33.7307 3.02684 32.7241 4.14136 32.4356L14.7746 29.6958C15.0658 29.6208 15.3045 29.4134 15.4197 29.1357C15.5348 28.8575 15.5126 28.5423 15.36 28.2832L9.77822 18.8273C9.1936 17.834 9.3543 16.5714 10.1689 15.7569L15.7567 10.169C16.5713 9.35443 17.8331 9.19221 18.8264 9.77797L28.2827 15.3594C28.5414 15.5112 28.857 15.5334 29.1352 15.419C29.4129 15.3039 29.6203 15.0651 29.6953 14.774L32.4347 4.14188C32.724 3.02621 33.7306 2.24723 34.8826 2.24723H42.7848C43.9372 2.24723 44.9439 3.02621 45.2323 4.14073L47.9721 14.774C48.0471 15.0651 48.2545 15.3039 48.5323 15.419C48.8108 15.5342 49.1261 15.5116 49.3847 15.3594L58.8403 9.77835C59.8324 9.1945 61.0957 9.35481 61.9107 10.169L67.4986 15.7569C68.3135 16.5718 68.4742 17.8344 67.8896 18.8265L62.3082 28.2829C62.1556 28.5419 62.1334 28.8571 62.2485 29.1353C62.3637 29.4131 62.6024 29.6204 62.8936 29.6954L73.5257 32.4348C74.6414 32.7241 75.4207 33.7307 75.4207 34.8827V42.785H75.4215Z" fill="url(#paint1_linear)"/>
<path d="M45.3888 31.4806C44.5559 31.4806 43.7731 31.805 43.1846 32.3939L36.9169 38.6616L34.1021 35.8465C33.5133 35.2576 32.7305 34.9332 31.8975 34.9332C31.0646 34.9332 30.2818 35.2576 29.6934 35.8465C28.4775 37.062 28.4775 39.04 29.6934 40.2552L34.7127 45.2745C35.3015 45.8633 36.0843 46.1878 36.9169 46.1878C37.7494 46.1878 38.5322 45.8633 39.121 45.2745L47.593 36.8026C48.1818 36.2138 48.5062 35.4309 48.5062 34.598C48.5062 33.7651 48.1818 32.9823 47.5934 32.3935C47.0041 31.805 46.2217 31.4806 45.3888 31.4806ZM46.2401 35.4497L37.7682 43.922C37.3197 44.3704 36.5136 44.3704 36.0652 43.922L31.0459 38.9027C30.576 38.4328 30.576 37.6684 31.0462 37.1989C31.2735 36.9713 31.5758 36.8462 31.8975 36.8462C32.2193 36.8462 32.5216 36.9713 32.7492 37.1989L36.2408 40.6906C36.6146 41.0644 37.2199 41.0644 37.5933 40.6906L44.5375 33.7467C44.9921 33.2918 45.7852 33.2918 46.2401 33.7467C46.4677 33.9744 46.5929 34.277 46.5929 34.5988C46.5929 34.9206 46.4677 35.2224 46.2401 35.4497Z" fill="url(#paint2_linear)"/>
<defs>
<linearGradient id="paint0_linear" x1="41.2356" y1="17.0787" x2="41.2356" y2="60.5897" gradientUnits="userSpaceOnUse">
<stop stop-color="#6777C4"/>
<stop offset="1" stop-color="#934CC4"/>
</linearGradient>
<linearGradient id="paint1_linear" x1="38.8339" y1="0.334229" x2="38.8339" y2="77.3342" gradientUnits="userSpaceOnUse">
<stop stop-color="#6777C4"/>
<stop offset="1" stop-color="#934CC4"/>
</linearGradient>
<linearGradient id="paint2_linear" x1="38.6438" y1="31.4806" x2="38.6438" y2="46.1878" gradientUnits="userSpaceOnUse">
<stop stop-color="#6777C4"/>
<stop offset="1" stop-color="#934CC4"/>
</linearGradient>
</defs>
</svg>
