<svg width="72" height="78" viewBox="0 0 72 78" fill="none" xmlns="http://www.w3.org/2000/svg">
<path d="M59.0434 29.6839C58.6909 29.6839 58.3387 29.5745 58.0381 29.3561L55.0968 27.2194L52.1556 29.3561C51.5546 29.7928 50.7463 29.7928 50.145 29.3561C49.5432 28.9194 49.2936 28.1504 49.5234 27.4434L50.6469 23.9858L47.7056 21.8491C47.1043 21.4123 46.8546 20.6437 47.0841 19.9364C47.3139 19.2295 47.9678 18.7543 48.7113 18.7543H52.3469L53.4703 15.2966C53.7001 14.5897 54.3537 14.1145 55.0972 14.1145C55.8407 14.1145 56.4947 14.5897 56.7241 15.2966L57.8475 18.7543H61.4831C62.2266 18.7543 62.8805 19.2295 63.1103 19.9364C63.3401 20.6433 63.0901 21.412 62.4888 21.8491L59.5475 23.9858L60.671 27.4434C60.9008 28.1504 60.6512 28.919 60.0494 29.3561C59.7484 29.5749 59.3959 29.6839 59.0434 29.6839ZM55.0968 25.267C55.4493 25.267 55.8018 25.3764 56.1025 25.5948L58.6733 27.4625L57.6916 24.4405C57.4615 23.7339 57.7111 22.9649 58.3128 22.5278L60.884 20.6601H57.7061C56.963 20.6601 56.3091 20.1852 56.0793 19.4783L55.0972 16.4559L54.1151 19.4779C53.885 20.1849 53.2314 20.6601 52.4883 20.6601H49.3104L51.8812 22.5278C52.4826 22.9645 52.7322 23.7335 52.5027 24.4405L51.5207 27.4625L54.0915 25.5948C54.3918 25.3764 54.7443 25.267 55.0968 25.267ZM61.4827 20.6601H61.4865H61.4827ZM54.9116 15.8858C54.9116 15.8858 54.9116 15.8862 54.912 15.8866L54.9116 15.8858Z" fill="url(#paint0_linear)"/>
<path d="M35.1045 30.9057C37.4428 28.5365 38.2469 24.7633 38.5095 22.0149C38.5751 21.3278 39.0811 21.063 39.2957 20.9814C39.7217 20.8183 40.176 20.8873 40.5331 21.1624C40.9782 21.9597 43.3821 26.6341 41.344 31.2418C41.131 31.7231 41.3486 32.2856 41.8299 32.4983C42.3112 32.7105 42.8737 32.4937 43.0864 32.0124C45.7254 26.0453 42.2362 20.2852 42.086 20.0428C42.0407 19.9696 41.9858 19.9029 41.9225 19.8446C41.0235 19.0123 39.756 18.7658 38.6158 19.2006C37.4943 19.6285 36.7264 20.6373 36.6121 21.8331C36.3788 24.2732 35.6925 27.596 33.7478 29.5666C31.7155 31.6263 27.8638 35.0531 25.7008 36.9547V36.3042C25.7008 35.7779 25.2743 35.3515 24.748 35.3515H15.8279C15.3016 35.3515 14.8752 35.7779 14.8752 36.3042V53.9143C14.8752 54.4406 15.3016 54.867 15.8279 54.867H24.7484C25.2747 54.867 25.7011 54.4406 25.7011 53.9143V39.487C27.1001 38.2706 32.4834 33.5615 35.1045 30.9057ZM23.7957 52.9623H16.7806V37.2577H23.7957V52.9623Z" fill="url(#paint1_linear)"/>
<path d="M50.4384 33.7166H40.9028C39.2649 33.7166 37.9322 35.0492 37.9322 36.6868V48.9212C37.9322 49.4475 38.3586 49.8739 38.8849 49.8739C39.4112 49.8739 39.8376 49.4475 39.8376 48.9212V36.6868C39.8376 36.0995 40.3155 35.622 40.9028 35.622H50.4384C51.0256 35.622 51.5031 36.0995 51.5031 36.6868V51.8971C51.5031 52.4844 51.0256 52.9623 50.4384 52.9623H38.9794L28.5098 50.8613C27.9946 50.7584 27.4919 51.0919 27.3883 51.6079C27.285 52.1239 27.6188 52.6258 28.1348 52.7294L38.697 54.849C38.7588 54.8612 38.8217 54.8677 38.8845 54.8677H50.438C52.0759 54.8677 53.4082 53.535 53.4082 51.8971V36.6868C53.4086 35.0488 52.0763 33.7166 50.4384 33.7166Z" fill="url(#paint2_linear)"/>
<path d="M36.1083 0.536743C16.4609 0.536743 0.476562 16.5211 0.476562 36.1685C0.476562 46.9411 5.24855 56.9656 13.5921 63.7734L10.0476 76.3253C9.94737 76.6793 10.0605 77.0596 10.3376 77.3016C10.5144 77.4563 10.7381 77.5367 10.9645 77.5367C11.0929 77.5367 11.2221 77.5108 11.3444 77.4575L27.046 70.6284C30.0094 71.4062 33.0562 71.8002 36.1083 71.8002C55.7557 71.8002 71.74 55.8159 71.74 36.1685C71.74 16.5211 55.7557 0.536743 36.1083 0.536743ZM36.1083 69.8948C33.1141 69.8948 30.1237 69.4939 27.2213 68.7027C27.0117 68.646 26.7899 68.6616 26.591 68.7485L12.4279 74.9084L15.5974 63.683C15.7022 63.3119 15.573 62.914 15.27 62.6754C7.07968 56.2278 2.382 46.5661 2.382 36.1685C2.382 17.5718 17.5116 2.44218 36.1083 2.44218C54.705 2.44218 69.8346 17.5718 69.8346 36.1685C69.8346 54.7652 54.705 69.8948 36.1083 69.8948Z" fill="url(#paint3_linear)"/>
<defs>
<linearGradient id="paint0_linear" x1="55.0973" y1="14.1145" x2="55.0973" y2="29.6839" gradientUnits="userSpaceOnUse">
<stop stop-color="#6777C4"/>
<stop offset="1" stop-color="#934CC4"/>
</linearGradient>
<linearGradient id="paint1_linear" x1="29.4727" y1="18.9893" x2="29.4727" y2="54.867" gradientUnits="userSpaceOnUse">
<stop stop-color="#6777C4"/>
<stop offset="1" stop-color="#934CC4"/>
</linearGradient>
<linearGradient id="paint2_linear" x1="40.3888" y1="33.7166" x2="40.3888" y2="54.8677" gradientUnits="userSpaceOnUse">
<stop stop-color="#6777C4"/>
<stop offset="1" stop-color="#934CC4"/>
</linearGradient>
<linearGradient id="paint3_linear" x1="36.1083" y1="0.536743" x2="36.1083" y2="77.5367" gradientUnits="userSpaceOnUse">
<stop stop-color="#6777C4"/>
<stop offset="1" stop-color="#934CC4"/>
</linearGradient>
</defs>
</svg>
