<svg width="70" height="77" viewBox="0 0 70 77" fill="none" xmlns="http://www.w3.org/2000/svg">
<path d="M35.4085 22.2416C29.2765 22.2416 24.2879 17.2525 24.2879 11.1206C24.2879 4.98868 29.2765 0 35.4085 0C41.5404 0 46.5291 4.98868 46.5291 11.1206C46.5291 17.2529 41.5404 22.2416 35.4085 22.2416ZM35.4085 1.83624C30.289 1.83624 26.1241 6.00118 26.1241 11.1206C26.1241 16.24 30.289 20.4053 35.4085 20.4053C40.5279 20.4053 44.6928 16.2404 44.6928 11.1206C44.6928 6.00118 40.5279 1.83624 35.4085 1.83624Z" fill="url(#paint0_linear)"/>
<path d="M33.9046 16.6848C33.2806 16.6848 32.6938 16.4417 32.2527 16.0006L28.574 12.3219C28.1326 11.8808 27.8898 11.2943 27.8898 10.6704C27.8898 10.0464 28.1329 9.45995 28.574 9.01852C29.4848 8.10848 30.9662 8.10848 31.877 9.01852L33.9046 11.0461L39.0853 5.86533C39.526 5.42427 40.1125 5.18115 40.7369 5.18115C41.3608 5.18115 41.9473 5.42427 42.3887 5.86533C42.8298 6.30603 43.0725 6.89252 43.0725 7.51684C43.0725 8.14079 42.8294 8.72729 42.3884 9.16835L35.5561 16.0006C35.1154 16.442 34.5285 16.6848 33.9046 16.6848ZM30.2259 10.1713C30.0981 10.1713 29.9699 10.2198 29.8726 10.3175C29.7786 10.4115 29.7264 10.5371 29.7264 10.6704C29.7264 10.8037 29.7786 10.9293 29.8726 11.0233L33.5517 14.7024C33.7404 14.8912 34.0695 14.8908 34.2575 14.7024L41.0901 7.87013C41.1845 7.77575 41.2363 7.65015 41.2363 7.51684C41.2363 7.38353 41.1842 7.25793 41.0901 7.16392C40.9014 6.97479 40.5723 6.97515 40.3843 7.16355L34.5539 12.9936C34.3816 13.1658 34.1484 13.2624 33.9046 13.2624C33.6611 13.2624 33.4275 13.1658 33.2553 12.9936L30.5788 10.3171C30.4818 10.2201 30.354 10.1713 30.2259 10.1713Z" fill="url(#paint1_linear)"/>
<path d="M67.5735 42.2951C67.5735 30.8723 59.9035 19.6948 51.5836 13.8709C51.5836 13.8709 49.7532 12.5397 50.7516 12.2069C51.75 11.8741 52.8316 12.7616 53.2476 13.0389C62.663 19.4716 69.4097 30.7735 69.4097 42.2951C69.4097 61.4313 53.841 77 34.7048 77C15.5687 77 0 61.4313 0 42.2951C0 29.8429 6.73127 18.2772 17.5676 12.1118C18.0083 11.8607 18.5687 12.0149 18.8196 12.456C19.07 12.8967 18.9162 13.4571 18.4755 13.7079C8.21201 19.5475 1.83624 30.5014 1.83624 42.2951C1.83624 60.4192 16.5808 75.1638 34.7048 75.1638C52.8289 75.1638 67.5735 60.4192 67.5735 42.2951Z" fill="url(#paint2_linear)"/>
<g clip-path="url(#clip0)">
<path d="M37.8557 49.2306C42.4503 49.2306 46.1756 45.5057 46.1756 40.9106C46.1756 36.3156 42.4503 32.5907 37.8557 32.5907C37.8549 32.5907 37.8549 32.5907 37.8541 32.5907H28.9808C28.6745 32.5907 28.4267 32.8389 28.4267 33.1452V48.1207H26.7627C26.4564 48.1207 26.2078 48.3693 26.2078 48.6765C26.2078 48.982 26.4564 49.2306 26.7627 49.2306H28.4267V51.4487H26.7627C26.4564 51.4487 26.2078 51.6973 26.2078 52.0044C26.2078 52.3099 26.4564 52.5585 26.7627 52.5585H28.4267V58.6604C28.4267 58.9659 28.6745 59.2145 28.9808 59.2145C29.2871 59.2145 29.5358 58.9659 29.5358 58.6604V52.5585H38.9647C39.2711 52.5585 39.5197 52.3099 39.5197 52.0044C39.5197 51.6973 39.2711 51.4487 38.9647 51.4487H29.5358V49.2306H37.8557ZM29.5358 33.7002H37.8541H37.8557C38.8299 33.7002 39.774 33.8907 40.6621 34.2661C41.5209 34.6292 42.2919 35.1492 42.9541 35.8119C43.6171 36.4744 44.1371 37.2459 44.5003 38.1043C44.8756 38.9923 45.0666 39.9368 45.0666 40.9106C45.0666 41.8844 44.8756 42.8289 44.5003 43.717C44.1371 44.5754 43.6171 45.3469 42.9541 46.0095C42.2919 46.672 41.5209 47.192 40.6621 47.5552C39.774 47.9306 38.8299 48.1207 37.8557 48.1207H29.5358V33.7002Z" fill="url(#paint3_linear)"/>
</g>
<defs>
<linearGradient id="paint0_linear" x1="35.4085" y1="0" x2="35.4085" y2="22.2416" gradientUnits="userSpaceOnUse">
<stop stop-color="#6777C4"/>
<stop offset="1" stop-color="#934CC4"/>
</linearGradient>
<linearGradient id="paint1_linear" x1="35.4812" y1="5.18115" x2="35.4812" y2="16.6848" gradientUnits="userSpaceOnUse">
<stop stop-color="#6777C4"/>
<stop offset="1" stop-color="#934CC4"/>
</linearGradient>
<linearGradient id="paint2_linear" x1="34.7048" y1="11.9913" x2="34.7048" y2="77" gradientUnits="userSpaceOnUse">
<stop stop-color="#934CC4"/>
<stop offset="0.0001" stop-color="#6777C4"/>
<stop offset="1" stop-color="#934CC4"/>
</linearGradient>
<linearGradient id="paint3_linear" x1="36.1917" y1="32.5907" x2="36.1917" y2="59.2145" gradientUnits="userSpaceOnUse">
<stop stop-color="#6777C4"/>
<stop offset="1" stop-color="#934CC4"/>
</linearGradient>
<clipPath id="clip0">
<rect x="22.8798" y="32.5907" width="26.6238" height="26.6238" fill="white"/>
</clipPath>
</defs>
</svg>
